<?xml version="1.0" encoding="UTF-8" standalone="no"?><!DOCTYPE svg PUBLIC "-//W3C//DTD SVG 1.1//EN" "http://www.w3.org/Graphics/SVG/1.1/DTD/svg11.dtd"><svg width="100%" height="100%" viewBox="0 0 2509 4171" version="1.1" xmlns="http://www.w3.org/2000/svg" xmlns:xlink="http://www.w3.org/1999/xlink" xml:space="preserve" xmlns:serif="http://www.serif.com/" style="fill-rule:evenodd;clip-rule:evenodd;stroke-linejoin:round;stroke-miterlimit:2;"><rect id="g_" x="-0.008" y="0.063" width="4166.67" height="4166.67" style="fill:none;"/><g><path d="M2499.99,2291.73c-0,-344.946 -280.054,-625 -625,-625l-1250,0c-344.95,0 -625,280.054 -625,625l-0,1250c-0,344.946 280.05,625 625,625l1250,0c344.946,0 625,-280.054 625,-625l-0,-1250Z" style="fill:#fff;"/><path d="M2499.99,2291.73c-0,-344.946 -280.054,-625 -625,-625l-1250,0c-344.95,0 -625,280.054 -625,625l-0,1250c-0,344.946 280.05,625 625,625l1250,0c344.946,0 625,-280.054 625,-625l-0,-1250Zm-291.667,0l0,1250c0,183.971 -149.362,333.333 -333.333,333.333l-1250,0c-183.975,0 -333.334,-149.362 -333.334,-333.333l0,-1250c0,-183.971 149.359,-333.333 333.334,-333.333l1250,-0c183.971,-0 333.333,149.362 333.333,333.333Z"/><text x="572.675px" y="3553.9px" style="font-family:'Arial-BoldMT', 'Arial', sans-serif;font-weight:700;font-size:1760.1px;">G</text></g></svg>