<?xml version="1.0" encoding="UTF-8" standalone="no"?><!DOCTYPE svg PUBLIC "-//W3C//DTD SVG 1.1//EN" "http://www.w3.org/Graphics/SVG/1.1/DTD/svg11.dtd"><svg width="100%" height="100%" viewBox="0 0 1401 1001" version="1.1" xmlns="http://www.w3.org/2000/svg" xmlns:xlink="http://www.w3.org/1999/xlink" xml:space="preserve" xmlns:serif="http://www.serif.com/" style="fill-rule:evenodd;clip-rule:evenodd;stroke-linejoin:round;stroke-miterlimit:2;"><rect id="g_A" x="0.202" y="0.18" width="1400" height="1000" style="fill:none;"/><clipPath id="_clip1"><rect x="0.202" y="0.18" width="1400" height="1000"/></clipPath><g clip-path="url(#_clip1)"><g><path d="M1400.2,250.18c0,-137.978 -112.021,-250 -250,-250l-500,0c-137.978,0 -250,112.022 -250,250l0,500c0,137.979 112.022,250 250,250l500,0c137.979,0 250,-112.021 250,-250l0,-500Z"/><path d="M1325.2,287.68c0,-117.282 -95.218,-212.5 -212.5,-212.5l-425,0c-117.282,0 -212.5,95.218 -212.5,212.5l0,425c0,117.282 95.218,212.5 212.5,212.5l425,0c117.282,0 212.5,-95.218 212.5,-212.5l0,-425Z"/><path d="M1325.2,287.68c0,-117.282 -95.218,-212.5 -212.5,-212.5l-425,0c-117.282,0 -212.5,95.218 -212.5,212.5l0,425c0,117.282 95.218,212.5 212.5,212.5l425,0c117.282,0 212.5,-95.218 212.5,-212.5l0,-425Zm-70,0l0,425c0,78.648 -63.852,142.5 -142.5,142.5c0,0 -425,0 -425,0c-78.647,0 -142.5,-63.852 -142.5,-142.5c0,0 0,-425 0,-425c0,-78.648 63.853,-142.5 142.5,-142.5l425,0c78.648,0 142.5,63.852 142.5,142.5Z" style="fill:#fff;"/></g><text x="647.444px" y="750.716px" style="font-family:'Arial-BoldMT', 'Arial', sans-serif;font-weight:700;font-size:700px;fill:#fff;">A</text><path d="M600.202,550.18c0,-82.787 -67.212,-150 -150,-150l-300,0c-82.787,0 -150,67.213 -150,150l0,300c0,82.788 67.213,150 150,150l300,0c82.788,0 150,-67.212 150,-150l0,-300Z" style="fill:#fff;"/><path d="M600.202,550.18c0,-82.787 -67.212,-150 -150,-150l-300,0c-82.787,0 -150,67.213 -150,150l0,300c0,82.788 67.213,150 150,150l300,0c82.788,0 150,-67.212 150,-150l0,-300Zm-70,0l0,300c0,44.154 -35.846,80 -80,80l-300,0c-44.153,0 -80,-35.846 -80,-80c0,0 0,-300 0,-300c0,-44.153 35.847,-80 80,-80l300,0c44.154,0 80,35.847 80,80Z"/><text x="137.647px" y="853.102px" style="font-family:'Arial-BoldMT', 'Arial', sans-serif;font-weight:700;font-size:422.425px;">G</text></g></svg>