<?xml version="1.0" encoding="UTF-8" standalone="no"?>
<!DOCTYPE svg PUBLIC "-//W3C//DTD SVG 1.1//EN" "http://www.w3.org/Graphics/SVG/1.1/DTD/svg11.dtd">
<svg width="100%" height="100%" viewBox="0 0 1401 1001" version="1.1" xmlns="http://www.w3.org/2000/svg" xmlns:xlink="http://www.w3.org/1999/xlink" xml:space="preserve" xmlns:serif="http://www.serif.com/" style="fill-rule:evenodd;clip-rule:evenodd;stroke-linejoin:round;stroke-miterlimit:2;">
    <g transform="matrix(1,0,0,1,-5288,-6765)">
        <g transform="matrix(1,-9.86076e-32,0,1,788.202,-2183.69)">
            <g id="g_Bhold" transform="matrix(1.4,0,0,1,4500,8949.66)">
                <rect x="0" y="0" width="1000" height="1000" style="fill:none;"/>
                <clipPath id="_clip1">
                    <rect x="0" y="0" width="1000" height="1000"/>
                </clipPath>
                <g clip-path="url(#_clip1)">
                    <g transform="matrix(0.714286,0,0,1,285.714,0)">
                        <path d="M1000,250C1000,112.021 887.979,0 750,0L250,0C112.021,0 0,112.021 0,250L0,750C0,887.979 112.021,1000 250,1000L750,1000C887.979,1000 1000,887.979 1000,750L1000,250Z"/>
                        <g transform="matrix(0.85,0,0,0.85,75,75)">
                            <path d="M1000,250C1000,112.021 887.979,0 750,0L250,0C112.021,0 0,112.021 0,250L0,750C0,887.979 112.021,1000 250,1000L750,1000C887.979,1000 1000,887.979 1000,750L1000,250Z"/>
                            <path d="M1000,250C1000,112.021 887.979,0 750,0L250,0C112.021,0 0,112.021 0,250L0,750C0,887.979 112.021,1000 250,1000L750,1000C887.979,1000 1000,887.979 1000,750L1000,250ZM917.647,250L917.647,750C917.647,842.527 842.527,917.647 750,917.647L250,917.647C157.473,917.647 82.353,842.527 82.353,750C82.353,750 82.353,250 82.353,250C82.353,157.473 157.473,82.353 250,82.353C250,82.353 750,82.353 750,82.353C842.527,82.353 917.647,157.473 917.647,250Z" style="fill:white;"/>
                        </g>
                    </g>
                    <g transform="matrix(1.50848,0,0,2.11187,285.714,249.462)">
                        <text x="117.072px" y="237.266px" style="font-family:'Arial-BoldMT', 'Arial', sans-serif;font-weight:700;font-size:331.46px;fill:white;">B</text>
                    </g>
                    <g transform="matrix(0.428571,0,0,0.6,-1.42109e-14,400)">
                        <path d="M1000,250C1000,112.021 887.979,0 750,0L250,0C112.021,0 0,112.021 0,250L0,750C0,887.979 112.021,1000 250,1000L750,1000C887.979,1000 1000,887.979 1000,750L1000,250Z" style="fill:white;"/>
                        <path d="M1000,250C1000,112.021 887.979,0 750,0L250,0C112.021,0 0,112.021 0,250L0,750C0,887.979 112.021,1000 250,1000L750,1000C887.979,1000 1000,887.979 1000,750L1000,250ZM883.333,250L883.333,750C883.333,823.589 823.589,883.333 750,883.333C750,883.333 250,883.333 250,883.333C176.411,883.333 116.667,823.589 116.667,750C116.667,750 116.667,250 116.667,250C116.667,176.411 176.411,116.667 250,116.667C250,116.667 750,116.667 750,116.667C823.589,116.667 883.333,176.411 883.333,250Z"/>
                    </g>
                    <g transform="matrix(0.910312,0,0,1.27444,-1.42109e-14,550.541)">
                        <text x="107.847px" y="237.266px" style="font-family:'Arial-BoldMT', 'Arial', sans-serif;font-weight:700;font-size:331.46px;">G</text>
                    </g>
                </g>
            </g>
        </g>
    </g>
</svg>
