<?xml version="1.0" encoding="UTF-8" standalone="no"?>
<!DOCTYPE svg PUBLIC "-//W3C//DTD SVG 1.1//EN" "http://www.w3.org/Graphics/SVG/1.1/DTD/svg11.dtd">
<svg width="100%" height="100%" viewBox="0 0 1001 1001" version="1.1" xmlns="http://www.w3.org/2000/svg" xmlns:xlink="http://www.w3.org/1999/xlink" xml:space="preserve" xmlns:serif="http://www.serif.com/" style="fill-rule:evenodd;clip-rule:evenodd;stroke-linejoin:round;stroke-miterlimit:2;">
    <g transform="matrix(1,0,0,1,-10312,-8801)">
        <g transform="matrix(1,-9.86076e-32,0,1,8112.52,727.768)">
            <g id="_3hold" serif:id="3hold" transform="matrix(1,0,0,1,2200,8073.72)">
                <rect x="0" y="0" width="1000" height="1000" style="fill-opacity:0;"/>
                <g transform="matrix(0.656243,0.656243,-1.81019,1.81019,-1166.77,-3024.36)">
                    <path d="M3495.65,593.171L3495.65,433.015L3875.97,433.015L3875.97,317.78L4414.73,513.093L3875.97,708.405L3875.97,593.171L3495.65,593.171Z"/>
                </g>
                <g transform="matrix(0.527269,0.527269,-1.21302,1.21302,-972.938,-2217.72)">
                    <path d="M3495.65,593.171L3495.65,433.015L3965.39,433.015L3965.39,317.78L4414.73,513.093L3965.39,708.405L3965.39,593.171L3495.65,593.171Z"/>
                    <path d="M3495.65,593.171L3495.65,433.015L3965.39,433.015L3965.39,317.78L4414.73,513.093L3965.39,708.405L3965.39,593.171L3495.65,593.171ZM3589.53,552.366L3589.53,473.82C3589.53,473.82 4059.27,473.82 4059.27,473.82L4059.27,416.292C4059.27,416.292 4281.97,513.093 4281.97,513.093C4281.97,513.093 4059.27,609.893 4059.27,609.893C4059.27,609.893 4059.27,552.366 4059.27,552.366L3589.53,552.366L3589.53,552.366Z" style="fill:white;"/>
                </g>
            </g>
        </g>
    </g>
</svg>
