<?xml version="1.0" encoding="UTF-8" standalone="no"?>
<!DOCTYPE svg PUBLIC "-//W3C//DTD SVG 1.1//EN" "http://www.w3.org/Graphics/SVG/1.1/DTD/svg11.dtd">
<svg width="100%" height="100%" viewBox="0 0 1001 1001" version="1.1" xmlns="http://www.w3.org/2000/svg" xmlns:xlink="http://www.w3.org/1999/xlink" xml:space="preserve" xmlns:serif="http://www.serif.com/" style="fill-rule:evenodd;clip-rule:evenodd;stroke-linejoin:round;stroke-miterlimit:2;">
    <g transform="matrix(1,0,0,1,-8112,-6455)">
        <g transform="matrix(1,-9.86076e-32,0,1,8112.52,727.768)">
            <g id="_4" serif:id="4" transform="matrix(1,0,0,1,0,5727.62)">
                <rect x="0" y="0" width="1000" height="1000" style="fill-opacity:0;"/>
                <clipPath id="_clip1">
                    <rect x="0" y="0" width="1000" height="1000"/>
                </clipPath>
                <g clip-path="url(#_clip1)">
                    <g transform="matrix(-0.928068,-1.13656e-16,3.1351e-16,-2.56,4170.69,1813.52)">
                        <path d="M3495.65,593.171L3495.65,433.015L3875.97,433.015L3875.97,317.78L4414.73,513.093L3875.97,708.405L3875.97,593.171L3495.65,593.171Z" style="fill:white;"/>
                        <path d="M3495.65,593.171L3495.65,433.015L3875.97,433.015L3875.97,317.78L4414.73,513.093L3875.97,708.405L3875.97,593.171L3495.65,593.171ZM3571.08,565.827C3571.08,536.38 3571.08,489.805 3571.08,460.358C3571.08,460.358 3951.4,460.358 3951.4,460.358L3951.4,383.794C3951.4,383.794 4308.06,513.093 4308.06,513.093C4308.06,513.093 4095.21,590.257 3951.4,642.391C3951.4,642.391 3951.4,565.827 3951.4,565.827L3571.08,565.827L3571.08,565.827Z"/>
                    </g>
                </g>
            </g>
        </g>
    </g>
</svg>
