<?xml version="1.0" encoding="UTF-8" standalone="no"?>
<!DOCTYPE svg PUBLIC "-//W3C//DTD SVG 1.1//EN" "http://www.w3.org/Graphics/SVG/1.1/DTD/svg11.dtd">
<svg width="100%" height="100%" viewBox="0 0 1001 1001" version="1.1" xmlns="http://www.w3.org/2000/svg" xmlns:xlink="http://www.w3.org/1999/xlink" xml:space="preserve" xmlns:serif="http://www.serif.com/" style="fill-rule:evenodd;clip-rule:evenodd;stroke-linejoin:round;stroke-miterlimit:2;">
    <g transform="matrix(1,0,0,1,-9212,-4135)">
        <g transform="matrix(1.29351,-5.9431e-16,-3.14887e-17,-2.79676,329.545,14688.4)">
            <g id="neutral" transform="matrix(0.773088,-1.64281e-16,-8.70421e-18,-0.357557,6867.32,3773.38)">
                <rect x="0" y="0" width="1000" height="1000" style="fill:none;"/>
                <g transform="matrix(1,0,0,1,-1100,-5649.75)">
                    <path d="M1600,5697.49L1712.26,6042.98L2075.53,6042.98L1781.64,6256.51L1893.89,6602L1600,6388.48L1306.11,6602L1418.36,6256.51L1124.47,6042.98L1487.74,6042.98L1600,5697.49Z" style="fill:white;"/>
                    <path d="M1600,5697.49L1712.26,6042.98L2075.53,6042.98L1781.64,6256.51L1893.89,6602L1600,6388.48L1306.11,6602L1418.36,6256.51L1124.47,6042.98L1487.74,6042.98L1600,5697.49ZM1600,5924.02L1661.4,6112.98L1860.09,6112.98C1860.09,6112.98 1699.35,6229.77 1699.35,6229.77L1760.75,6418.74C1760.75,6418.74 1600,6301.95 1600,6301.95L1439.26,6418.74C1439.26,6418.74 1500.65,6229.77 1500.65,6229.77L1339.91,6112.98C1339.91,6112.98 1538.6,6112.98 1538.6,6112.98L1600,5924.02Z"/>
                </g>
            </g>
        </g>
    </g>
</svg>
