<?xml version="1.0" encoding="UTF-8" standalone="no"?>
<!DOCTYPE svg PUBLIC "-//W3C//DTD SVG 1.1//EN" "http://www.w3.org/Graphics/SVG/1.1/DTD/svg11.dtd">
<svg width="100%" height="100%" viewBox="0 0 1001 1000" version="1.1" xmlns="http://www.w3.org/2000/svg" xmlns:xlink="http://www.w3.org/1999/xlink" xml:space="preserve" xmlns:serif="http://www.serif.com/" style="fill-rule:evenodd;clip-rule:evenodd;stroke-linejoin:round;stroke-miterlimit:2;">
    <g transform="matrix(1,0,0,1,-10312,-5241)">
        <g transform="matrix(1,-9.86076e-32,0,1,8112.52,727.768)">
            <g id="_9" serif:id="9" transform="matrix(1,0,0,1,2200,4513.23)">
                <rect x="0" y="0" width="1000" height="1000" style="fill-opacity:0;"/>
                <g transform="matrix(0.656243,-0.656243,1.81019,1.81019,-3024.36,2166.77)">
                    <path d="M3495.65,593.171L3495.65,433.015L3875.97,433.015L3875.97,317.78L4414.73,513.093L3875.97,708.405L3875.97,593.171L3495.65,593.171Z" style="fill:white;"/>
                    <path d="M3495.65,593.171L3495.65,433.015L3875.97,433.015L3875.97,317.78L4414.73,513.093L3875.97,708.405L3875.97,593.171L3495.65,593.171ZM3571.08,565.827C3571.08,536.38 3571.08,489.805 3571.08,460.358C3571.08,460.358 3951.4,460.358 3951.4,460.358L3951.4,383.794C4065.27,425.074 4225.72,483.242 4308.06,513.093C4225.72,542.943 4065.27,601.111 3951.4,642.391C3951.4,642.391 3951.4,565.827 3951.4,565.827L3571.08,565.827L3571.08,565.827Z"/>
                </g>
            </g>
        </g>
    </g>
</svg>
