<?xml version="1.0" encoding="UTF-8" standalone="no"?>
<!DOCTYPE svg PUBLIC "-//W3C//DTD SVG 1.1//EN" "http://www.w3.org/Graphics/SVG/1.1/DTD/svg11.dtd">
<svg width="100%" height="100%" viewBox="0 0 1001 1001" version="1.1" xmlns="http://www.w3.org/2000/svg" xmlns:xlink="http://www.w3.org/1999/xlink" xml:space="preserve" xmlns:serif="http://www.serif.com/" style="fill-rule:evenodd;clip-rule:evenodd;stroke-linejoin:round;stroke-miterlimit:2;">
    <g transform="matrix(1,0,0,1,-8112,-727)">
        <g transform="matrix(1,-9.86076e-32,0,1,8112.52,727.768)">
            <rect id="A" x="0" y="0" width="1000" height="1000" style="fill:none;"/>
            <clipPath id="_clip1">
                <rect id="A1" serif:id="A" x="0" y="0" width="1000" height="1000"/>
            </clipPath>
            <g clip-path="url(#_clip1)">
                <path d="M1000,250C1000,112.021 887.979,0 750,0L250,0C112.021,0 0,112.021 0,250L0,750C0,887.979 112.021,1000 250,1000L750,1000C887.979,1000 1000,887.979 1000,750L1000,250Z" style="fill:white;"/>
                <path d="M1000,250C1000,112.021 887.979,0 750,0L250,0C112.021,0 0,112.021 0,250L0,750C0,887.979 112.021,1000 250,1000L750,1000C887.979,1000 1000,887.979 1000,750L1000,250ZM930,250L930,750C930,849.345 849.345,930 750,930C750,930 250,930 250,930C150.655,930 70,849.345 70,750L70,250C70,150.655 150.655,70 250,70L750,70C849.345,70 930,150.655 930,250Z"/>
                <g transform="matrix(2.11187,0,0,2.11187,1.06581e-13,249.462)">
                    <text x="117.072px" y="237.266px" style="font-family:'Arial-BoldMT', 'Arial', sans-serif;font-weight:700;font-size:331.46px;">A</text>
                </g>
            </g>
        </g>
    </g>
</svg>
