<?xml version="1.0" encoding="UTF-8" standalone="no"?>
<!DOCTYPE svg PUBLIC "-//W3C//DTD SVG 1.1//EN" "http://www.w3.org/Graphics/SVG/1.1/DTD/svg11.dtd">
<svg width="100%" height="100%" viewBox="0 0 2251 1001" version="1.1" xmlns="http://www.w3.org/2000/svg" xmlns:xlink="http://www.w3.org/1999/xlink" xml:space="preserve" xmlns:serif="http://www.serif.com/" style="fill-rule:evenodd;clip-rule:evenodd;stroke-linejoin:round;stroke-miterlimit:2;">
    <g transform="matrix(1,0,0,1,-788,-10723)">
        <g transform="matrix(1,-9.86076e-32,0,1,-2237.04,692.333)">
            <g id="AplusB" transform="matrix(2.25,0,0,1,3025.24,10031.4)">
                <rect x="0" y="0" width="1000" height="1000" style="fill:none;"/>
                <clipPath id="_clip1">
                    <rect x="0" y="0" width="1000" height="1000"/>
                </clipPath>
                <g clip-path="url(#_clip1)">
                    <g transform="matrix(0.444444,0,0,1,7.61749e-13,0)">
                        <path d="M1000,250C1000,112.021 887.979,0 750,0L250,0C112.021,0 0,112.021 0,250L0,750C0,887.979 112.021,1000 250,1000L750,1000C887.979,1000 1000,887.979 1000,750L1000,250Z" style="fill:white;"/>
                        <path d="M1000,250C1000,112.021 887.979,0 750,0L250,0C112.021,0 0,112.021 0,250L0,750C0,887.979 112.021,1000 250,1000L750,1000C887.979,1000 1000,887.979 1000,750L1000,250ZM930,250L930,750C930,849.345 849.345,930 750,930L250,930C150.655,930 70,849.345 70,750L70,250C70,150.655 150.655,70 250,70C250,70 750,70 750,70C849.345,70 930,150.655 930,250Z"/>
                    </g>
                    <g transform="matrix(0.938607,0,0,2.11187,8.09119e-13,249.462)">
                        <text x="117.072px" y="237.266px" style="font-family:'Arial-BoldMT', 'Arial', sans-serif;font-weight:700;font-size:331.46px;">A</text>
                    </g>
                    <g transform="matrix(0.444444,0,0,1,555.556,0)">
                        <path d="M1000,250C1000,112.021 887.979,0 750,0L250,0C112.021,0 0,112.021 0,250L0,750C0,887.979 112.021,1000 250,1000L750,1000C887.979,1000 1000,887.979 1000,750L1000,250Z" style="fill:white;"/>
                        <path d="M1000,250C1000,112.021 887.979,0 750,0L250,0C112.021,0 0,112.021 0,250L0,750C0,887.979 112.021,1000 250,1000L750,1000C887.979,1000 1000,887.979 1000,750L1000,250ZM930,250L930,750C930,849.345 849.345,930 750,930L250,930C150.655,930 70,849.345 70,750C70,750 70,250 70,250C70,150.655 150.655,70 250,70C250,70 750,70 750,70C849.345,70 930,150.655 930,250Z"/>
                    </g>
                    <g transform="matrix(0.938607,0,0,2.11187,555.556,249.462)">
                        <text x="117.072px" y="237.266px" style="font-family:'Arial-BoldMT', 'Arial', sans-serif;font-weight:700;font-size:331.46px;">B</text>
                    </g>
                    <g transform="matrix(1,0,0,1,-55.5556,0)">
                        <g transform="matrix(0.286524,0,0,0.64468,409.588,-1207.89)">
                            <circle cx="509.441" cy="2649.2" r="500" style="fill:white;"/>
                            <path d="M509.441,2149.2C785.399,2149.2 1009.44,2373.25 1009.44,2649.2C1009.44,2925.16 785.399,3149.2 509.441,3149.2C233.484,3149.2 9.441,2925.16 9.441,2649.2C9.441,2373.25 233.484,2149.2 509.441,2149.2ZM509.441,2257.79C725.472,2257.79 900.86,2433.18 900.86,2649.2C900.86,2865.24 725.472,3040.62 509.441,3040.62C293.411,3040.62 118.023,2865.24 118.023,2649.2C118.023,2433.18 293.411,2257.79 509.441,2257.79Z"/>
                        </g>
                        <g transform="matrix(0.938607,0,0,2.11187,333.333,246.019)">
                            <text x="139.974px" y="237.266px" style="font-family:'Arial-BoldMT', 'Arial', sans-serif;font-weight:700;font-size:331.46px;">+</text>
                        </g>
                    </g>
                </g>
            </g>
        </g>
    </g>
</svg>
