<?xml version="1.0" encoding="UTF-8" standalone="no"?>
<!DOCTYPE svg PUBLIC "-//W3C//DTD SVG 1.1//EN" "http://www.w3.org/Graphics/SVG/1.1/DTD/svg11.dtd">
<svg width="100%" height="100%" viewBox="0 0 2001 1001" version="1.1" xmlns="http://www.w3.org/2000/svg" xmlns:xlink="http://www.w3.org/1999/xlink" xml:space="preserve" xmlns:serif="http://www.serif.com/" style="fill-rule:evenodd;clip-rule:evenodd;stroke-linejoin:round;stroke-miterlimit:2;">
    <g transform="matrix(1,0,0,1,-17912,-1934)">
        <g transform="matrix(1,-9.86076e-32,0,1,7741.7,-4189.49)">
            <g id="AT" transform="matrix(2,0,0,1,10170.4,6123.53)">
                <rect x="0" y="0" width="1000" height="1000" style="fill:none;"/>
                <clipPath id="_clip1">
                    <rect x="0" y="0" width="1000" height="1000"/>
                </clipPath>
                <g clip-path="url(#_clip1)">
                    <g transform="matrix(0.5,0,0,1,-1160.22,-3249.63)">
                        <path d="M4320.45,3749.63C4320.45,3473.67 4096.41,3249.63 3820.45,3249.63L2820.45,3249.63C2544.49,3249.63 2320.45,3473.67 2320.45,3749.63C2320.45,4025.59 2544.49,4249.63 2820.45,4249.63L3820.45,4249.63C4096.41,4249.63 4320.45,4025.59 4320.45,3749.63Z"/>
                    </g>
                    <g transform="matrix(0.471481,0,0,0.885923,-1065.53,-2821.89)">
                        <path d="M4320.45,3749.63C4320.45,3473.67 4109.96,3249.63 3850.69,3249.63L2790.2,3249.63C2530.94,3249.63 2320.45,3473.67 2320.45,3749.63C2320.45,4025.59 2530.94,4249.63 2790.2,4249.63L3850.69,4249.63C4109.96,4249.63 4320.45,4025.59 4320.45,3749.63Z" style="fill:white;"/>
                    </g>
                    <g transform="matrix(0.440427,0,0,0.761706,-962.414,-2356.12)">
                        <path d="M4320.45,3749.63C4320.45,3473.67 4126.71,3249.63 3888.08,3249.63L2752.82,3249.63C2514.19,3249.63 2320.45,3473.67 2320.45,3749.63C2320.45,4025.59 2514.19,4249.63 2752.82,4249.63L3888.08,4249.63C4126.71,4249.63 4320.45,4025.59 4320.45,3749.63Z" style="fill:rgb(255,1,255);"/>
                    </g>
                    <g transform="matrix(0.869893,0,0,1.73979,4.1922e-13,249.291)">
                        <g id="High">
                            <text x="321.547px" y="288.009px" style="font-family:'Arial-BoldMT', 'Arial', sans-serif;font-weight:700;font-size:402.348px;">A<tspan x="582.248px " y="288.009px ">T</tspan></text>
                            <path d="M535.433,305.252L636.017,305.252L506.887,-17.243L421.936,-17.243L296.326,305.252L395.316,305.252L419.088,239.832C419.088,239.832 510.287,239.832 510.287,239.832C510.287,239.832 535.433,305.252 535.433,305.252ZM610.539,288.009L547.279,288.009L522.132,222.588L407.007,222.588L383.235,288.009L321.547,288.009L433.725,0L495.217,0L610.539,288.009ZM503.468,174.063L463.784,67.189L424.885,174.063L503.468,174.063ZM478.672,156.819L449.511,156.819C449.511,156.819 463.946,117.161 463.946,117.161L478.672,156.819Z" style="fill:white;fill-opacity:0.5;"/>
                            <path d="M659.109,288.009L659.109,305.252L751.748,305.252L751.748,65.965L837.011,65.965L837.011,-17.243L573.649,-17.243L573.649,65.965L659.109,65.965C659.109,65.965 659.109,288.009 659.109,288.009ZM676.352,288.009L676.352,48.722L590.893,48.722L590.893,0L819.767,0L819.767,48.722L734.504,48.722L734.504,288.009L676.352,288.009Z" style="fill:white;fill-opacity:0.5;"/>
                        </g>
                    </g>
                </g>
            </g>
        </g>
    </g>
</svg>
