<?xml version="1.0" encoding="UTF-8" standalone="no"?>
<!DOCTYPE svg PUBLIC "-//W3C//DTD SVG 1.1//EN" "http://www.w3.org/Graphics/SVG/1.1/DTD/svg11.dtd">
<svg width="100%" height="100%" viewBox="0 0 1001 1001" version="1.1" xmlns="http://www.w3.org/2000/svg" xmlns:xlink="http://www.w3.org/1999/xlink" xml:space="preserve" xmlns:serif="http://www.serif.com/" style="fill-rule:evenodd;clip-rule:evenodd;stroke-linejoin:round;stroke-miterlimit:2;">
    <g transform="matrix(1,0,0,1,-9212,-1942)">
        <g transform="matrix(1,-9.86076e-32,0,1,8112.52,727.768)">
            <g id="Bhold" transform="matrix(1,0,0,1,1100,1214.39)">
                <rect x="0" y="0" width="1000" height="1000" style="fill:none;"/>
                <g>
                    <path d="M1000,250C1000,112.021 887.979,0 750,0L250,0C112.021,0 0,112.021 0,250L0,750C0,887.979 112.021,1000 250,1000L750,1000C887.979,1000 1000,887.979 1000,750L1000,250Z"/>
                    <g transform="matrix(0.85,0,0,0.85,75,75)">
                        <path d="M1000,250C1000,112.021 887.979,0 750,0L250,0C112.021,0 0,112.021 0,250L0,750C0,887.979 112.021,1000 250,1000L750,1000C887.979,1000 1000,887.979 1000,750L1000,250Z"/>
                        <path d="M1000,250C1000,112.021 887.979,0 750,0L250,0C112.021,0 0,112.021 0,250L0,750C0,887.979 112.021,1000 250,1000L750,1000C887.979,1000 1000,887.979 1000,750L1000,250ZM917.647,250L917.647,750C917.647,842.527 842.527,917.647 750,917.647L250,917.647C157.473,917.647 82.353,842.527 82.353,750C82.353,750 82.353,250 82.353,250C82.353,157.473 157.473,82.353 250,82.353L750,82.353C842.527,82.353 917.647,157.473 917.647,250Z" style="fill:white;"/>
                    </g>
                </g>
                <g transform="matrix(2.11187,0,0,2.11187,1.06581e-13,249.462)">
                    <text x="117.072px" y="237.266px" style="font-family:'Arial-BoldMT', 'Arial', sans-serif;font-weight:700;font-size:331.46px;fill:white;">B</text>
                </g>
            </g>
        </g>
    </g>
</svg>
