<?xml version="1.0" encoding="UTF-8" standalone="no"?>
<!DOCTYPE svg PUBLIC "-//W3C//DTD SVG 1.1//EN" "http://www.w3.org/Graphics/SVG/1.1/DTD/svg11.dtd">
<svg width="100%" height="100%" viewBox="0 0 2001 1001" version="1.1" xmlns="http://www.w3.org/2000/svg" xmlns:xlink="http://www.w3.org/1999/xlink" xml:space="preserve" xmlns:serif="http://www.serif.com/" style="fill-rule:evenodd;clip-rule:evenodd;stroke-linejoin:round;stroke-miterlimit:2;">
    <g transform="matrix(1,0,0,1,-15749,-1934)">
        <g transform="matrix(1,-9.86076e-32,0,1,7741.7,-4189.49)">
            <g id="BA" transform="matrix(2,0,0,1,8008.2,6123.53)">
                <rect x="0" y="0" width="1000" height="1000" style="fill:none;"/>
                <clipPath id="_clip1">
                    <rect x="0" y="0" width="1000" height="1000"/>
                </clipPath>
                <g clip-path="url(#_clip1)">
                    <g transform="matrix(0.5,0,0,1,-1160.22,-3249.63)">
                        <path d="M4320.45,3749.63C4320.45,3473.67 4096.41,3249.63 3820.45,3249.63L2820.45,3249.63C2544.49,3249.63 2320.45,3473.67 2320.45,3749.63C2320.45,4025.59 2544.49,4249.63 2820.45,4249.63L3820.45,4249.63C4096.41,4249.63 4320.45,4025.59 4320.45,3749.63Z"/>
                    </g>
                    <g transform="matrix(0.471481,0,0,0.885923,-1065.53,-2821.89)">
                        <path d="M4320.45,3749.63C4320.45,3473.67 4109.96,3249.63 3850.69,3249.63L2790.2,3249.63C2530.94,3249.63 2320.45,3473.67 2320.45,3749.63C2320.45,4025.59 2530.94,4249.63 2790.2,4249.63L3850.69,4249.63C4109.96,4249.63 4320.45,4025.59 4320.45,3749.63Z" style="fill:white;"/>
                    </g>
                    <g transform="matrix(0.440427,0,0,0.761706,-962.414,-2356.12)">
                        <path d="M4320.45,3749.63C4320.45,3473.67 4126.71,3249.63 3888.08,3249.63L2752.82,3249.63C2514.19,3249.63 2320.45,3473.67 2320.45,3749.63C2320.45,4025.59 2514.19,4249.63 2752.82,4249.63L3888.08,4249.63C4126.71,4249.63 4320.45,4025.59 4320.45,3749.63Z" style="fill:rgb(102,153,255);"/>
                    </g>
                    <g transform="matrix(0.869893,0,0,1.73979,4.1922e-13,249.291)">
                        <g id="High">
                            <text x="284.22px" y="288.009px" style="font-family:'Arial-BoldMT', 'Arial', sans-serif;font-weight:700;font-size:402.348px;">BA</text>
                            <path d="M428.814,-17.243L296.445,-17.243L296.445,305.252L411.783,305.252C449.825,304.984 473.78,304.262 483.711,303.188L483.729,303.186C502.406,301.128 518.032,295.439 530.761,286.505C543.632,277.471 553.842,265.448 561.277,250.338C568.579,235.499 572.184,220.217 572.184,204.514C572.184,183.848 566.201,165.907 554.485,150.611C548.91,143.332 542.211,137.026 534.353,131.748C538.045,127.871 541.387,123.612 544.381,118.974C553.48,104.873 558.039,89.382 558.039,72.493C558.039,56.814 554.245,42.684 546.818,30.058C539.564,17.726 530.445,7.9 519.564,0.485C508.71,-6.912 496.427,-11.82 482.678,-14.152C470.846,-16.159 452.894,-17.243 428.814,-17.243ZM313.689,0L428.814,0C451.603,0 468.597,0.95 479.795,2.849C490.993,4.748 501.013,8.71 509.853,14.734C518.694,20.759 526.061,28.781 531.955,38.801C537.849,48.82 540.796,60.051 540.796,72.493C540.796,85.984 537.161,98.36 529.892,109.624C522.623,120.888 512.767,129.336 500.325,134.967C517.875,140.075 531.366,148.785 540.796,161.096C550.226,173.408 554.941,187.88 554.941,204.514C554.941,217.611 551.896,230.348 545.805,242.725C539.715,255.102 531.398,264.99 520.855,272.39C510.312,279.79 497.313,284.342 481.858,286.044C472.166,287.092 448.787,287.747 411.722,288.009L313.689,288.009L313.689,0ZM371.841,162.472L371.841,239.484L425.671,239.484C446.626,239.484 459.92,238.894 465.552,237.715C474.196,236.144 481.236,232.313 486.671,226.223C492.107,220.132 494.824,211.979 494.824,201.763C494.824,193.119 492.729,185.785 488.537,179.76C484.346,173.735 478.289,169.348 470.365,166.597C462.441,163.847 445.251,162.472 418.795,162.472L371.841,162.472ZM389.084,179.715L418.795,179.715C442.331,179.715 457.661,180.44 464.711,182.887C468.869,184.331 472.183,186.445 474.382,189.607C476.684,192.917 477.581,197.015 477.581,201.763C477.581,207.119 476.655,211.548 473.806,214.741C470.905,217.991 467.081,219.911 462.467,220.75L462.243,220.791C456.887,221.912 444.766,222.24 425.671,222.24C425.671,222.24 389.084,222.24 389.084,222.24L389.084,179.715ZM371.841,47.936L371.841,114.536L409.954,114.536C432.612,114.536 446.692,114.208 452.193,113.553C462.147,112.375 469.972,108.937 475.669,103.239C481.367,97.542 484.215,90.044 484.215,80.745C484.215,71.839 481.76,64.602 476.848,59.036C471.937,53.47 464.635,50.097 454.943,48.918C449.18,48.263 432.612,47.936 405.239,47.936L371.841,47.936ZM389.084,65.179L405.239,65.179C431.396,65.179 447.286,65.42 452.905,66.041C457.679,66.628 461.507,67.712 463.918,70.445C466.22,73.053 466.972,76.571 466.972,80.745C466.972,84.949 466.052,88.471 463.476,91.046C460.286,94.237 455.739,95.769 450.165,96.429L450.159,96.43C444.919,97.054 431.518,97.292 409.954,97.292C409.954,97.292 389.084,97.292 389.084,97.292L389.084,65.179Z" style="fill:white;fill-opacity:0.5;"/>
                            <path d="M788.669,305.252L889.253,305.252L760.123,-17.243L675.172,-17.243L549.561,305.252L648.552,305.252L672.324,239.832C672.324,239.832 763.522,239.832 763.522,239.832C763.522,239.832 788.669,305.252 788.669,305.252ZM863.774,288.009L800.514,288.009L775.368,222.588L660.243,222.588L636.471,288.009L574.783,288.009L686.961,0L748.453,0L863.774,288.009ZM756.704,174.063L717.019,67.189L678.12,174.063L756.704,174.063ZM731.907,156.819L702.747,156.819C702.747,156.819 717.181,117.161 717.181,117.161L731.907,156.819Z" style="fill:white;fill-opacity:0.5;"/>
                        </g>
                    </g>
                </g>
            </g>
        </g>
    </g>
</svg>
