<?xml version="1.0" encoding="UTF-8" standalone="no"?>
<!DOCTYPE svg PUBLIC "-//W3C//DTD SVG 1.1//EN" "http://www.w3.org/Graphics/SVG/1.1/DTD/svg11.dtd">
<svg width="100%" height="100%" viewBox="0 0 2001 1001" version="1.1" xmlns="http://www.w3.org/2000/svg" xmlns:xlink="http://www.w3.org/1999/xlink" xml:space="preserve" xmlns:serif="http://www.serif.com/" style="fill-rule:evenodd;clip-rule:evenodd;stroke-linejoin:round;stroke-miterlimit:2;">
    <g transform="matrix(1,0,0,1,-17862,-5675)">
        <g transform="matrix(1,-9.86076e-32,0,1,7741.7,-4189.49)">
            <g id="BE" transform="matrix(2,0,0,1,10121,9864.9)">
                <rect x="0" y="0" width="1000" height="1000" style="fill:none;"/>
                <clipPath id="_clip1">
                    <rect x="0" y="0" width="1000" height="1000"/>
                </clipPath>
                <g clip-path="url(#_clip1)">
                    <g transform="matrix(0.5,0,0,1,-1160.22,-3249.63)">
                        <path d="M4320.45,3749.63C4320.45,3473.67 4096.41,3249.63 3820.45,3249.63L2820.45,3249.63C2544.49,3249.63 2320.45,3473.67 2320.45,3749.63C2320.45,4025.59 2544.49,4249.63 2820.45,4249.63L3820.45,4249.63C4096.41,4249.63 4320.45,4025.59 4320.45,3749.63Z"/>
                    </g>
                    <g transform="matrix(0.471481,0,0,0.885923,-1065.53,-2821.89)">
                        <path d="M4320.45,3749.63C4320.45,3473.67 4109.96,3249.63 3850.69,3249.63L2790.2,3249.63C2530.94,3249.63 2320.45,3473.67 2320.45,3749.63C2320.45,4025.59 2530.94,4249.63 2790.2,4249.63L3850.69,4249.63C4109.96,4249.63 4320.45,4025.59 4320.45,3749.63Z" style="fill:white;"/>
                    </g>
                    <g transform="matrix(0.440427,0,0,0.761706,-962.414,-2356.12)">
                        <path d="M4320.45,3749.63C4320.45,3473.67 4126.71,3249.63 3888.08,3249.63L2752.82,3249.63C2514.19,3249.63 2320.45,3473.67 2320.45,3749.63C2320.45,4025.59 2514.19,4249.63 2752.82,4249.63L3888.08,4249.63C4126.71,4249.63 4320.45,4025.59 4320.45,3749.63Z" style="fill:rgb(0,102,255);"/>
                    </g>
                    <g transform="matrix(0.869893,0,0,1.73979,4.1922e-13,249.462)">
                        <g id="High">
                            <text x="295.32px" y="288.009px" style="font-family:'Arial-BoldMT', 'Arial', sans-serif;font-weight:700;font-size:402.348px;">BE</text>
                            <path d="M324.789,-17.243L307.545,-17.243L307.545,305.252L422.883,305.252C460.925,304.984 484.88,304.262 494.811,303.188L494.829,303.186C513.506,301.128 529.132,295.439 541.861,286.505C554.732,277.471 564.942,265.448 572.377,250.338C579.679,235.499 583.284,220.217 583.284,204.514C583.284,183.848 577.301,165.907 565.585,150.611C560.01,143.332 553.311,137.026 545.453,131.748C549.145,127.871 552.487,123.612 555.48,118.974C564.58,104.873 569.139,89.382 569.139,72.493C569.139,56.814 565.344,42.684 557.918,30.058C550.664,17.726 541.545,7.9 530.664,0.485C519.81,-6.912 507.527,-11.82 493.778,-14.152C481.946,-16.159 463.994,-17.243 439.914,-17.243L324.789,-17.243ZM324.789,0L439.914,0C462.703,0 479.697,0.95 490.895,2.849C502.093,4.748 512.113,8.71 520.953,14.734C529.794,20.759 537.161,28.781 543.055,38.801C548.949,48.82 551.896,60.051 551.896,72.493C551.896,85.984 548.261,98.36 540.992,109.624C533.723,120.888 523.867,129.336 511.425,134.967C528.975,140.075 542.466,148.785 551.896,161.096C561.326,173.408 566.041,187.88 566.041,204.514C566.041,217.611 562.995,230.348 556.905,242.725C550.815,255.102 542.498,264.99 531.955,272.39C521.412,279.79 508.413,284.342 492.958,286.044C483.266,287.092 459.887,287.747 422.822,288.009L324.789,288.009L324.789,0ZM382.941,162.472L382.941,239.484L436.771,239.484C457.726,239.484 471.02,238.894 476.652,237.715C485.296,236.144 492.336,232.313 497.771,226.223C503.206,220.132 505.924,211.979 505.924,201.763C505.924,193.119 503.829,185.785 499.637,179.76C495.446,173.735 489.389,169.348 481.465,166.597C473.541,163.847 456.351,162.472 429.894,162.472L382.941,162.472ZM400.184,179.715L429.894,179.715C453.431,179.715 468.761,180.44 475.811,182.887C479.969,184.331 483.282,186.445 485.482,189.607C487.784,192.917 488.681,197.015 488.681,201.763C488.681,207.119 487.755,211.548 484.906,214.741C482.005,217.991 478.181,219.911 473.567,220.75L473.343,220.791C467.987,221.912 455.865,222.24 436.771,222.24L400.184,222.24L400.184,179.715ZM382.941,47.936L382.941,114.536L421.054,114.536C443.712,114.536 457.792,114.208 463.293,113.553C473.246,112.375 481.072,108.937 486.769,103.239C492.467,97.542 495.315,90.044 495.315,80.745C495.315,71.839 492.86,64.602 487.948,59.036C483.037,53.47 475.735,50.097 466.043,48.918C460.28,48.263 443.712,47.936 416.339,47.936L382.941,47.936ZM400.184,65.179L416.339,65.179C442.496,65.179 458.385,65.42 464.005,66.041C468.779,66.628 472.607,67.712 475.018,70.445L475.018,70.445C477.32,73.053 478.072,76.571 478.072,80.745C478.072,84.949 477.152,88.471 474.576,91.046C471.386,94.237 466.839,95.769 461.265,96.429L461.259,96.43C456.019,97.054 442.618,97.292 421.054,97.292L400.184,97.292L400.184,65.179Z" style="fill:white;fill-opacity:0.5;"/>
                            <path d="M597.912,-17.243L597.912,305.252L851.451,305.252L851.451,222.24L690.551,222.24C690.551,222.24 690.551,178.34 690.551,178.34C690.551,178.34 835.145,178.34 835.145,178.34L835.145,95.328L690.551,95.328C690.551,95.328 690.551,65.965 690.551,65.965L845.95,65.965L845.95,-17.243L597.912,-17.243ZM615.155,288.009L615.155,0L828.706,0L828.706,48.722L673.307,48.722L673.307,112.571L817.901,112.571L817.901,161.096L673.307,161.096L673.307,239.484L834.207,239.484L834.207,288.009L615.155,288.009Z" style="fill:white;fill-opacity:0.5;"/>
                        </g>
                    </g>
                </g>
            </g>
        </g>
    </g>
</svg>
