<?xml version="1.0" encoding="UTF-8" standalone="no"?>
<!DOCTYPE svg PUBLIC "-//W3C//DTD SVG 1.1//EN" "http://www.w3.org/Graphics/SVG/1.1/DTD/svg11.dtd">
<svg width="100%" height="100%" viewBox="0 0 2001 1001" version="1.1" xmlns="http://www.w3.org/2000/svg" xmlns:xlink="http://www.w3.org/1999/xlink" xml:space="preserve" xmlns:serif="http://www.serif.com/" style="fill-rule:evenodd;clip-rule:evenodd;stroke-linejoin:round;stroke-miterlimit:2;">
    <g transform="matrix(1,0,0,1,-15710,-4408)">
        <g transform="matrix(1,-9.86076e-32,0,1,7741.7,-4189.49)">
            <g id="CE" transform="matrix(2,0,0,1,7968.94,8597.62)">
                <rect x="0" y="0" width="1000" height="1000" style="fill:none;"/>
                <clipPath id="_clip1">
                    <rect x="0" y="0" width="1000" height="1000"/>
                </clipPath>
                <g clip-path="url(#_clip1)">
                    <g transform="matrix(0.5,0,0,1,-1160.22,-3249.63)">
                        <path d="M4320.45,3749.63C4320.45,3473.67 4096.41,3249.63 3820.45,3249.63L2820.45,3249.63C2544.49,3249.63 2320.45,3473.67 2320.45,3749.63C2320.45,4025.59 2544.49,4249.63 2820.45,4249.63L3820.45,4249.63C4096.41,4249.63 4320.45,4025.59 4320.45,3749.63Z"/>
                    </g>
                    <g transform="matrix(0.471481,0,0,0.885923,-1065.53,-2821.89)">
                        <path d="M4320.45,3749.63C4320.45,3473.67 4109.96,3249.63 3850.69,3249.63L2790.2,3249.63C2530.94,3249.63 2320.45,3473.67 2320.45,3749.63C2320.45,4025.59 2530.94,4249.63 2790.2,4249.63L3850.69,4249.63C4109.96,4249.63 4320.45,4025.59 4320.45,3749.63Z" style="fill:white;"/>
                    </g>
                    <g transform="matrix(0.440427,0,0,0.761706,-962.414,-2356.12)">
                        <path d="M4320.45,3749.63C4320.45,3473.67 4126.71,3249.63 3888.08,3249.63L2752.82,3249.63C2514.19,3249.63 2320.45,3473.67 2320.45,3749.63C2320.45,4025.59 2514.19,4249.63 2752.82,4249.63L3888.08,4249.63C4126.71,4249.63 4320.45,4025.59 4320.45,3749.63Z" style="fill:url(#_Linear2);"/>
                    </g>
                    <g transform="matrix(0.869893,0,0,1.73979,4.1922e-13,249.291)">
                        <g id="High">
                            <text x="295.32px" y="288.009px" style="font-family:'Arial-BoldMT', 'Arial', sans-serif;font-weight:700;font-size:402.348px;">CE</text>
                            <path d="M514.083,165.681L496.255,160.028L492.066,178.255C488.197,195.088 482.381,207.711 473.494,215.552C465.555,222.557 456.043,225.973 445.022,225.973C429.482,225.973 416.81,220.346 407.097,208.886C395.926,195.704 391.54,173.293 391.54,142.236C391.54,113.262 396.038,92.017 407.262,79.078C417.207,67.615 430.231,62.036 446.201,62.036C457.402,62.036 466.987,64.959 474.819,71.224C482.65,77.489 487.627,86.135 490.095,96.956L493.969,113.941L585.972,91.961L581.056,74.657C573.52,48.129 561.9,27.954 546.83,13.78C521.759,-9.937 489.285,-22.155 449.147,-22.155C403.55,-22.155 366.881,-6.873 338.901,23.106C311.491,52.474 297.133,93.479 297.133,146.558C297.133,196.957 311.377,236.494 338.762,265.553C366.68,295.179 402.249,310.164 445.611,310.164C480.775,310.164 509.685,301.127 532.557,283.768C555.363,266.459 572.075,240.226 581.881,204.568L586.28,188.572L514.083,165.681ZM508.871,182.118L565.255,199.995C556.611,231.429 542.236,254.775 522.132,270.033C502.028,285.291 476.521,292.92 445.611,292.92C407.367,292.92 375.934,279.856 351.311,253.727C326.688,227.598 314.377,191.875 314.377,146.558C314.377,98.622 326.753,61.393 351.507,34.871C376.261,8.35 408.808,-4.911 449.147,-4.911C484.379,-4.911 512.997,5.501 535,26.326C548.097,38.637 557.92,56.318 564.469,79.369L506.906,93.122C503.501,78.191 496.396,66.403 485.591,57.759C474.785,49.115 461.655,44.793 446.201,44.793C424.852,44.793 407.531,52.455 394.237,67.778C380.943,83.102 374.297,107.921 374.297,142.236C374.297,178.647 380.845,204.579 393.942,220.034C407.04,235.489 424.066,243.216 445.022,243.216C460.477,243.216 473.77,238.305 484.903,228.482C496.036,218.659 504.025,203.204 508.871,182.118Z" style="fill:white;fill-opacity:0.5;"/>
                            <path d="M597.912,288.009L597.912,305.252L851.451,305.252L851.451,222.24L690.551,222.24C690.551,222.24 690.551,178.34 690.551,178.34L835.145,178.34L835.145,95.328L690.551,95.328C690.551,95.328 690.551,65.965 690.551,65.965C690.551,65.965 845.95,65.965 845.95,65.965L845.95,-17.243L597.912,-17.243L597.912,288.009ZM615.155,288.009L615.155,0L828.706,0L828.706,48.722L673.307,48.722L673.307,112.571L817.901,112.571L817.901,161.096L673.307,161.096L673.307,239.484L834.207,239.484L834.207,288.009L615.155,288.009Z" style="fill:white;fill-opacity:0.5;"/>
                        </g>
                    </g>
                </g>
            </g>
        </g>
    </g>
    <defs>
        <linearGradient id="_Linear2" x1="0" y1="0" x2="1" y2="0" gradientUnits="userSpaceOnUse" gradientTransform="matrix(2000,0,0,1000,2320.45,3749.63)"><stop offset="0" style="stop-color:rgb(255,1,1);stop-opacity:1"/><stop offset="0.15" style="stop-color:rgb(255,0,0);stop-opacity:1"/><stop offset="0.31" style="stop-color:rgb(255,201,201);stop-opacity:1"/><stop offset="0.5" style="stop-color:white;stop-opacity:1"/><stop offset="0.69" style="stop-color:rgb(255,201,201);stop-opacity:1"/><stop offset="0.85" style="stop-color:rgb(255,0,0);stop-opacity:1"/><stop offset="1" style="stop-color:rgb(255,0,0);stop-opacity:1"/></linearGradient>
    </defs>
</svg>
