<?xml version="1.0" encoding="UTF-8" standalone="no"?><!DOCTYPE svg PUBLIC "-//W3C//DTD SVG 1.1//EN" "http://www.w3.org/Graphics/SVG/1.1/DTD/svg11.dtd"><svg width="100%" height="100%" viewBox="0 0 1001 1001" version="1.1" xmlns="http://www.w3.org/2000/svg" xmlns:xlink="http://www.w3.org/1999/xlink" xml:space="preserve" xmlns:serif="http://www.serif.com/" style="fill-rule:evenodd;clip-rule:evenodd;stroke-linejoin:round;stroke-miterlimit:2;"><rect id="K" x="0.234" y="0.768" width="1000" height="1000" style="fill:none;"/><clipPath id="_clip1"><rect x="0.234" y="0.768" width="1000" height="1000"/></clipPath><g clip-path="url(#_clip1)"><path d="M1000.23,250.768c-0,-137.978 -112.021,-250 -250,-250l-500,0c-137.979,0 -250,112.022 -250,250l-0,500c-0,137.979 112.021,250 250,250l500,0c137.979,0 250,-112.021 250,-250l-0,-500Z" style="fill:#fff;"/><path d="M1000.23,250.768c-0,-137.978 -112.021,-250 -250,-250l-500,0c-137.979,0 -250,112.022 -250,250l-0,500c-0,137.979 112.021,250 250,250l500,0c137.979,0 250,-112.021 250,-250l-0,-500Zm-70,0l-0,500c-0,99.345 -80.655,180 -180,180c-0,0 -500,0 -500,0c-99.345,0 -180,-80.655 -180,-180c-0,0 -0,-500 -0,-500c-0,-99.344 80.655,-180 180,-180l500,0c99.345,0 180,80.656 180,180Z"/><text x="227.993px" y="751.304px" style="font-family:'Arial-BoldMT', 'Arial', sans-serif;font-weight:700;font-size:700px;">G</text></g></svg>