<?xml version="1.0" encoding="UTF-8" standalone="no"?>
<!DOCTYPE svg PUBLIC "-//W3C//DTD SVG 1.1//EN" "http://www.w3.org/Graphics/SVG/1.1/DTD/svg11.dtd">
<svg width="100%" height="100%" viewBox="0 0 2001 1001" version="1.1" xmlns="http://www.w3.org/2000/svg" xmlns:xlink="http://www.w3.org/1999/xlink" xml:space="preserve" xmlns:serif="http://www.serif.com/" style="fill-rule:evenodd;clip-rule:evenodd;stroke-linejoin:round;stroke-miterlimit:2;">
    <g transform="matrix(1,0,0,1,-15749,-692)">
        <g transform="matrix(1,-9.86076e-32,0,1,7741.7,-4189.49)">
            <g id="GC" transform="matrix(2,0,0,1,8008.2,4881.82)">
                <rect x="0" y="0" width="1000" height="1000" style="fill:none;"/>
                <clipPath id="_clip1">
                    <rect x="0" y="0" width="1000" height="1000"/>
                </clipPath>
                <g clip-path="url(#_clip1)">
                    <g transform="matrix(0.5,0,0,1,-1160.22,-3249.63)">
                        <path d="M4320.45,3749.63C4320.45,3473.67 4096.41,3249.63 3820.45,3249.63L2820.45,3249.63C2544.49,3249.63 2320.45,3473.67 2320.45,3749.63C2320.45,4025.59 2544.49,4249.63 2820.45,4249.63L3820.45,4249.63C4096.41,4249.63 4320.45,4025.59 4320.45,3749.63Z"/>
                    </g>
                    <g transform="matrix(0.471481,0,0,0.885923,-1065.53,-2821.89)">
                        <path d="M4320.45,3749.63C4320.45,3473.67 4109.96,3249.63 3850.69,3249.63L2790.2,3249.63C2530.94,3249.63 2320.45,3473.67 2320.45,3749.63C2320.45,4025.59 2530.94,4249.63 2790.2,4249.63L3850.69,4249.63C4109.96,4249.63 4320.45,4025.59 4320.45,3749.63Z" style="fill:white;"/>
                    </g>
                    <g transform="matrix(0.440427,0,0,0.761706,-962.414,-2356.12)">
                        <path d="M4320.45,3749.63C4320.45,3473.67 4126.71,3249.63 3888.08,3249.63L2752.82,3249.63C2514.19,3249.63 2320.45,3473.67 2320.45,3749.63C2320.45,4025.59 2514.19,4249.63 2752.82,4249.63L3888.08,4249.63C4126.71,4249.63 4320.45,4025.59 4320.45,3749.63Z" style="fill:rgb(102,153,255);"/>
                    </g>
                    <g transform="matrix(0.869893,0,0,1.73979,4.1922e-13,249.291)">
                        <g id="High">
                            <text x="273.022px" y="288.009px" style="font-family:'Arial-BoldMT', 'Arial', sans-serif;font-weight:700;font-size:402.348px;">GC</text>
                            <path d="M419.036,116.349L419.036,199.361L485.636,199.361C485.636,199.361 485.636,209.727 485.636,209.727C479.562,213.601 472.702,217.006 465.077,219.983C454.924,223.946 444.807,225.973 434.708,225.973C415.436,225.973 399.763,219.5 387.872,206.122C374.993,191.633 369.438,169.643 369.438,140.665C369.438,114.278 374.826,94.118 387.311,80.706C399.145,67.993 415.246,62.036 435.297,62.036C447.958,62.036 458.608,64.81 467.065,70.992C475.179,76.923 480.613,85.076 483.554,95.325L487.882,110.401L578.516,93.446L574.736,76.092C568.024,45.278 552.813,21.228 529.397,3.761C506.779,-13.11 475.523,-22.155 435.297,-22.155C404.621,-22.155 379.039,-16.556 358.438,-5.896C331.003,8.198 310.197,28.477 295.958,54.878C282.093,80.587 275.031,109.948 275.031,143.022C275.031,173.345 281.26,201.394 293.62,227.19C306.458,253.987 325.658,274.573 351.186,288.979C376.003,302.985 405.06,310.164 438.44,310.164C464.251,310.164 489.745,305.306 514.913,295.538C540.599,285.57 560.078,273.813 573.612,260.715L578.864,255.633L578.864,116.349L419.036,116.349ZM436.279,182.118L436.279,133.592L561.62,133.592L561.62,248.324C549.44,260.112 531.791,270.491 508.675,279.463C485.558,288.435 462.147,292.92 438.44,292.92C408.317,292.92 382.057,286.601 359.66,273.962C337.264,261.323 320.434,243.249 309.17,219.739C297.907,196.23 292.275,170.657 292.275,143.022C292.275,113.029 298.562,86.376 311.135,63.063C323.708,39.75 342.11,21.872 366.34,9.43C384.807,-0.131 407.793,-4.911 435.297,-4.911C471.053,-4.911 498.983,2.587 519.087,17.583C539.191,32.579 552.125,53.306 557.888,79.762L500.129,90.568C496.068,76.423 488.439,65.257 477.241,57.071C466.043,48.886 452.062,44.793 435.297,44.793C409.888,44.793 389.686,52.847 374.689,68.957C359.693,85.067 352.195,108.969 352.195,140.665C352.195,174.849 359.791,200.486 374.984,217.578C390.177,234.67 410.085,243.216 434.708,243.216C446.888,243.216 459.101,240.826 471.347,236.046C483.593,231.265 494.104,225.469 502.879,218.659L502.879,182.118L436.279,182.118Z" style="fill:white;fill-opacity:0.5;"/>
                            <path d="M804.744,165.681L786.916,160.028L782.727,178.255C778.858,195.088 773.042,207.711 764.155,215.552C756.216,222.557 746.704,225.973 735.683,225.973C720.143,225.973 707.471,220.346 697.759,208.886C686.587,195.704 682.201,173.293 682.201,142.236C682.201,113.262 686.699,92.017 697.923,79.078C707.868,67.615 720.892,62.036 736.862,62.036C748.063,62.036 757.648,64.959 765.48,71.224C773.311,77.489 778.288,86.135 780.756,96.956L784.63,113.941L876.633,91.961L871.717,74.657C864.181,48.129 852.561,27.954 837.491,13.78C812.42,-9.937 779.946,-22.155 739.809,-22.155C694.211,-22.155 657.543,-6.873 629.563,23.106C602.152,52.474 587.794,93.479 587.794,146.558C587.794,196.957 602.039,236.494 629.423,265.553C657.341,295.179 692.91,310.164 736.272,310.164C771.436,310.164 800.346,301.127 823.218,283.768C846.024,266.459 862.736,240.226 872.542,204.568L876.941,188.572L804.744,165.681ZM799.532,182.118L855.916,199.995C847.272,231.429 832.897,254.775 812.793,270.033C792.689,285.291 767.182,292.92 736.272,292.92C698.028,292.92 666.595,279.856 641.972,253.727C617.349,227.598 605.038,191.875 605.038,146.558C605.038,98.622 617.415,61.393 642.168,34.871C666.922,8.35 699.469,-4.911 739.809,-4.911C775.04,-4.911 803.658,5.501 825.661,26.326C838.758,38.637 848.581,56.318 855.13,79.369L797.568,93.122C794.162,78.191 787.057,66.403 776.252,57.759C765.447,49.115 752.317,44.793 736.862,44.793C715.513,44.793 698.192,52.455 684.898,67.778C671.605,83.102 664.958,107.921 664.958,142.236C664.958,178.647 671.506,204.579 684.604,220.034C697.701,235.489 714.727,243.216 735.683,243.216C751.138,243.216 764.431,238.305 775.564,228.482C786.697,218.659 794.686,203.204 799.532,182.118Z" style="fill:white;fill-opacity:0.5;"/>
                        </g>
                    </g>
                </g>
            </g>
        </g>
    </g>
</svg>
