<?xml version="1.0" encoding="UTF-8" standalone="no"?>
<!DOCTYPE svg PUBLIC "-//W3C//DTD SVG 1.1//EN" "http://www.w3.org/Graphics/SVG/1.1/DTD/svg11.dtd">
<svg width="100%" height="100%" viewBox="0 0 2001 1001" version="1.1" xmlns="http://www.w3.org/2000/svg" xmlns:xlink="http://www.w3.org/1999/xlink" xml:space="preserve" xmlns:serif="http://www.serif.com/" style="fill-rule:evenodd;clip-rule:evenodd;stroke-linejoin:round;stroke-miterlimit:2;">
    <g transform="matrix(1,0,0,1,-13414,-1934)">
        <g transform="matrix(1,-9.86076e-32,0,1,7741.7,-4189.49)">
            <g id="GI" transform="matrix(2,0,0,1,5673.05,6123.53)">
                <rect x="0" y="0" width="1000" height="1000" style="fill:none;"/>
                <clipPath id="_clip1">
                    <rect x="0" y="0" width="1000" height="1000"/>
                </clipPath>
                <g clip-path="url(#_clip1)">
                    <g transform="matrix(0.5,0,0,1,-1160.22,-3249.63)">
                        <path d="M4320.45,3749.63C4320.45,3473.67 4096.41,3249.63 3820.45,3249.63L2820.45,3249.63C2544.49,3249.63 2320.45,3473.67 2320.45,3749.63C2320.45,4025.59 2544.49,4249.63 2820.45,4249.63L3820.45,4249.63C4096.41,4249.63 4320.45,4025.59 4320.45,3749.63Z"/>
                    </g>
                    <g transform="matrix(0.471481,0,0,0.885923,-1065.53,-2821.89)">
                        <path d="M4320.45,3749.63C4320.45,3473.67 4109.96,3249.63 3850.69,3249.63L2790.2,3249.63C2530.94,3249.63 2320.45,3473.67 2320.45,3749.63C2320.45,4025.59 2530.94,4249.63 2790.2,4249.63L3850.69,4249.63C4109.96,4249.63 4320.45,4025.59 4320.45,3749.63Z" style="fill:white;"/>
                    </g>
                    <g transform="matrix(0.440427,0,0,0.761706,-962.414,-2356.12)">
                        <path d="M4320.45,3749.63C4320.45,3473.67 4126.71,3249.63 3888.08,3249.63L2752.82,3249.63C2514.19,3249.63 2320.45,3473.67 2320.45,3749.63C2320.45,4025.59 2514.19,4249.63 2752.82,4249.63L3888.08,4249.63C4126.71,4249.63 4320.45,4025.59 4320.45,3749.63Z" style="fill:rgb(153,255,0);"/>
                    </g>
                    <g transform="matrix(0.869893,0,0,1.73979,4.1922e-13,249.291)">
                        <g id="High">
                            <text x="362.411px" y="288.009px" style="font-family:'Arial-BoldMT', 'Arial', sans-serif;font-weight:700;font-size:402.348px;">GI</text>
                            <path d="M508.425,116.349L508.425,199.361L575.024,199.361C575.024,199.361 575.024,209.727 575.024,209.727C568.951,213.601 562.091,217.006 554.466,219.983C544.313,223.946 534.195,225.973 524.097,225.973C504.825,225.973 489.152,219.5 477.261,206.122C464.382,191.633 458.827,169.643 458.827,140.665C458.827,114.278 464.215,94.118 476.7,80.706C488.534,67.993 504.634,62.036 524.686,62.036C537.347,62.036 547.997,64.81 556.454,70.992C564.567,76.923 570.001,85.076 572.943,95.325L577.271,110.401L667.905,93.446L664.125,76.092C657.413,45.278 642.202,21.228 618.786,3.761C596.168,-13.11 564.912,-22.155 524.686,-22.155C494.01,-22.155 468.428,-16.556 447.827,-5.896C420.392,8.198 399.586,28.477 385.347,54.878C371.482,80.587 364.42,109.948 364.42,143.022C364.42,173.345 370.649,201.394 383.008,227.19C395.847,253.987 415.047,274.573 440.575,288.979C465.392,302.985 494.449,310.164 527.829,310.164C553.639,310.164 579.134,305.306 604.302,295.538C629.988,285.57 649.466,273.813 663.001,260.715L668.253,255.633L668.253,116.349L508.425,116.349ZM525.668,182.118L525.668,133.592L651.009,133.592L651.009,248.324C638.829,260.112 621.18,270.491 598.063,279.463C574.947,288.435 551.535,292.92 527.829,292.92C497.706,292.92 471.446,286.601 449.049,273.962C426.653,261.323 409.823,243.249 398.559,219.739C387.296,196.23 381.664,170.657 381.664,143.022C381.664,113.029 387.95,86.376 400.524,63.063C413.097,39.75 431.499,21.872 455.729,9.43C474.196,-0.131 497.182,-4.911 524.686,-4.911C560.442,-4.911 588.371,2.587 608.476,17.583C628.58,32.579 641.514,53.306 647.276,79.762L589.517,90.568C585.457,76.423 577.828,65.257 566.63,57.071C555.432,48.886 541.45,44.793 524.686,44.793C499.277,44.793 479.075,52.847 464.078,68.957C449.082,85.067 441.584,108.969 441.584,140.665C441.584,174.849 449.18,200.486 464.373,217.578C479.566,234.67 499.474,243.216 524.097,243.216C536.277,243.216 548.49,240.826 560.736,236.046C572.982,231.265 583.493,225.469 592.268,218.659L592.268,182.118L525.668,182.118Z" style="fill:white;fill-opacity:0.5;"/>
                            <path d="M685.631,-17.243L685.631,305.252L778.27,305.252L778.27,-17.243L685.631,-17.243ZM702.874,288.009L702.874,0L761.026,0L761.026,288.009L702.874,288.009Z" style="fill:white;fill-opacity:0.5;"/>
                        </g>
                    </g>
                </g>
            </g>
        </g>
    </g>
</svg>
