<?xml version="1.0" encoding="UTF-8" standalone="no"?>
<!DOCTYPE svg PUBLIC "-//W3C//DTD SVG 1.1//EN" "http://www.w3.org/Graphics/SVG/1.1/DTD/svg11.dtd">
<svg width="100%" height="100%" viewBox="0 0 1001 1001" version="1.1" xmlns="http://www.w3.org/2000/svg" xmlns:xlink="http://www.w3.org/1999/xlink" xml:space="preserve" xmlns:serif="http://www.serif.com/" style="fill-rule:evenodd;clip-rule:evenodd;stroke-linejoin:round;stroke-miterlimit:2;">
    <g transform="matrix(1,0,0,1,-16666,-9743)">
        <g transform="matrix(1,-9.86076e-32,0,1,7741.7,-4189.49)">
            <g id="High" transform="matrix(1,0,0,1,8924.8,13933)">
                <rect x="0" y="0" width="1000" height="1000" style="fill:none;"/>
                <g transform="matrix(1,0,0,1,0,-2171.56)">
                    <circle cx="500" cy="2671.56" r="500"/>
                </g>
                <g transform="matrix(0.885923,0,0,0.885923,57.0383,-1866.79)">
                    <circle cx="500" cy="2671.56" r="500" style="fill:white;"/>
                </g>
                <g transform="matrix(0.761706,0,0,0.761706,119.147,-1534.94)">
                    <circle cx="500" cy="2671.56" r="500" style="fill:rgb(255,102,153);"/>
                </g>
                <g transform="matrix(1.73979,0,0,1.73979,88.0926,249.291)">
                    <g id="High1" serif:id="High">
                        <text x="91.476px" y="288.009px" style="font-family:'Arial-BoldMT', 'Arial', sans-serif;font-weight:700;font-size:402.348px;">H</text>
                        <path d="M103.701,288.009L103.701,305.252L196.34,305.252L196.34,179.322C196.34,179.322 275.799,179.322 275.799,179.322C275.799,179.322 275.799,305.252 275.799,305.252L368.438,305.252L368.438,-17.243L275.799,-17.243L275.799,96.113C275.799,96.113 196.34,96.113 196.34,96.113C196.34,96.113 196.34,-17.243 196.34,-17.243L103.701,-17.243L103.701,288.009ZM120.945,288.009L120.945,0L179.097,0L179.097,113.357L293.043,113.357L293.043,0L351.195,0L351.195,288.009L293.043,288.009L293.043,162.079L179.097,162.079L179.097,288.009L120.945,288.009Z" style="fill:white;fill-opacity:0.5;"/>
                    </g>
                </g>
            </g>
        </g>
    </g>
</svg>
