<?xml version="1.0" encoding="UTF-8" standalone="no"?>
<!DOCTYPE svg PUBLIC "-//W3C//DTD SVG 1.1//EN" "http://www.w3.org/Graphics/SVG/1.1/DTD/svg11.dtd">
<svg width="100%" height="100%" viewBox="0 0 1001 1001" version="1.1" xmlns="http://www.w3.org/2000/svg" xmlns:xlink="http://www.w3.org/1999/xlink" xml:space="preserve" xmlns:serif="http://www.serif.com/" style="fill-rule:evenodd;clip-rule:evenodd;stroke-linejoin:round;stroke-miterlimit:2;">
    <g transform="matrix(1,0,0,1,-16666,-7498)">
        <g transform="matrix(1,-9.86076e-32,0,1,7741.7,-4189.49)">
            <g id="Low" transform="matrix(1,0,0,1,8924.8,11688.3)">
                <rect x="0" y="0" width="1000" height="1000" style="fill:none;"/>
                <clipPath id="_clip1">
                    <rect x="0" y="0" width="1000" height="1000"/>
                </clipPath>
                <g clip-path="url(#_clip1)">
                    <g transform="matrix(1,0,0,1,0,-2171.56)">
                        <circle cx="500" cy="2671.56" r="500"/>
                    </g>
                    <g transform="matrix(0.885923,0,0,0.885923,57.0383,-1866.79)">
                        <circle cx="500" cy="2671.56" r="500" style="fill:white;"/>
                    </g>
                    <g transform="matrix(0.761706,0,0,0.761706,119.147,-1534.94)">
                        <circle cx="500" cy="2671.56" r="500" style="fill:rgb(153,204,255);"/>
                    </g>
                    <g transform="matrix(1.73979,0,0,1.73979,88.0926,249.291)">
                        <text x="113.872px" y="288.009px" style="font-family:'Arial-BoldMT', 'Arial', sans-serif;font-weight:700;font-size:402.348px;">L</text>
                        <path d="M127.473,2.358L127.473,305.252L364.706,305.252L364.706,222.24L220.112,222.24C220.112,222.24 220.112,-14.886 220.112,-14.886L127.473,-14.886L127.473,2.358ZM144.716,288.009L144.716,2.358L202.868,2.358L202.868,239.484L347.462,239.484L347.462,288.009L144.716,288.009Z" style="fill:white;fill-opacity:0.5;"/>
                    </g>
                </g>
            </g>
        </g>
    </g>
</svg>
