<?xml version="1.0" encoding="UTF-8" standalone="no"?>
<!DOCTYPE svg PUBLIC "-//W3C//DTD SVG 1.1//EN" "http://www.w3.org/Graphics/SVG/1.1/DTD/svg11.dtd">
<svg width="100%" height="100%" viewBox="0 0 2001 1001" version="1.1" xmlns="http://www.w3.org/2000/svg" xmlns:xlink="http://www.w3.org/1999/xlink" xml:space="preserve" xmlns:serif="http://www.serif.com/" style="fill-rule:evenodd;clip-rule:evenodd;stroke-linejoin:round;stroke-miterlimit:2;">
    <g transform="matrix(1,0,0,1,-13402,-692)">
        <g transform="matrix(1,-9.86076e-32,0,1,7741.7,-4189.49)">
            <g id="LH" transform="matrix(2,0,0,1,5660.69,4881.82)">
                <rect x="0" y="0" width="1000" height="1000" style="fill:none;"/>
                <clipPath id="_clip1">
                    <rect x="0" y="0" width="1000" height="1000"/>
                </clipPath>
                <g clip-path="url(#_clip1)">
                    <g transform="matrix(0.5,0,0,1,-1160.22,-3249.63)">
                        <path d="M4320.45,3749.63C4320.45,3473.67 4096.41,3249.63 3820.45,3249.63L2820.45,3249.63C2544.49,3249.63 2320.45,3473.67 2320.45,3749.63C2320.45,4025.59 2544.49,4249.63 2820.45,4249.63L3820.45,4249.63C4096.41,4249.63 4320.45,4025.59 4320.45,3749.63Z"/>
                    </g>
                    <g transform="matrix(0.471481,0,0,0.885923,-1065.53,-2821.89)">
                        <path d="M4320.45,3749.63C4320.45,3473.67 4109.96,3249.63 3850.69,3249.63L2790.2,3249.63C2530.94,3249.63 2320.45,3473.67 2320.45,3749.63C2320.45,4025.59 2530.94,4249.63 2790.2,4249.63L3850.69,4249.63C4109.96,4249.63 4320.45,4025.59 4320.45,3749.63Z" style="fill:white;"/>
                    </g>
                    <g transform="matrix(0.440427,0,0,0.761706,-962.414,-2356.12)">
                        <path d="M4320.45,3749.63C4320.45,3473.67 4126.71,3249.63 3888.08,3249.63L2752.82,3249.63C2514.19,3249.63 2320.45,3473.67 2320.45,3749.63C2320.45,4025.59 2514.19,4249.63 2752.82,4249.63L3888.08,4249.63C4126.71,4249.63 4320.45,4025.59 4320.45,3749.63Z" style="fill:rgb(255,102,0);"/>
                    </g>
                    <g transform="matrix(0.869893,0,0,1.73979,0,249.291)">
                        <g id="High">
                            <text x="306.616px" y="288.009px" style="font-family:'Arial-BoldMT', 'Arial', sans-serif;font-weight:700;font-size:402.348px;">LH</text>
                            <path d="M320.217,-14.886L320.217,305.252L557.45,305.252L557.45,222.24L412.856,222.24L412.856,-14.886L320.217,-14.886ZM337.46,288.009L337.46,2.358L395.612,2.358L395.612,239.484L540.206,239.484L540.206,288.009L337.46,288.009Z" style="fill:white;fill-opacity:0.5;"/>
                            <path d="M564.612,-17.243L564.612,305.252L657.251,305.252L657.251,179.322C657.251,179.322 736.71,179.322 736.71,179.322C736.71,179.322 736.71,305.252 736.71,305.252L829.349,305.252L829.349,-17.243L736.71,-17.243L736.71,96.113C736.71,96.113 657.251,96.113 657.251,96.113C657.251,96.113 657.251,-17.243 657.251,-17.243L564.612,-17.243ZM581.856,288.009L581.856,0L640.007,0L640.007,113.357L753.954,113.357L753.954,0L812.106,0L812.106,288.009L753.954,288.009L753.954,162.079L640.007,162.079L640.007,288.009L581.856,288.009Z" style="fill:white;fill-opacity:0.5;"/>
                        </g>
                    </g>
                </g>
            </g>
        </g>
    </g>
</svg>
