<?xml version="1.0" encoding="UTF-8" standalone="no"?>
<!DOCTYPE svg PUBLIC "-//W3C//DTD SVG 1.1//EN" "http://www.w3.org/Graphics/SVG/1.1/DTD/svg11.dtd">
<svg width="100%" height="100%" viewBox="0 0 1001 1001" version="1.1" xmlns="http://www.w3.org/2000/svg" xmlns:xlink="http://www.w3.org/1999/xlink" xml:space="preserve" xmlns:serif="http://www.serif.com/" style="fill-rule:evenodd;clip-rule:evenodd;stroke-linejoin:round;stroke-miterlimit:2;">
    <g transform="matrix(1,0,0,1,-16666,-8605)">
        <g transform="matrix(1,-9.86076e-32,0,1,7741.7,-4189.49)">
            <g id="Mid" transform="matrix(1,0,0,1,8924.8,12794.5)">
                <rect x="0" y="0" width="1000" height="1000" style="fill:none;"/>
                <g transform="matrix(1,0,0,1,0,-2171.56)">
                    <circle cx="500" cy="2671.56" r="500"/>
                </g>
                <g transform="matrix(0.885923,0,0,0.885923,57.0383,-1866.79)">
                    <circle cx="500" cy="2671.56" r="500" style="fill:white;"/>
                </g>
                <g transform="matrix(0.761706,0,0,0.761706,119.147,-1534.94)">
                    <circle cx="500" cy="2671.56" r="500" style="fill:rgb(255,255,12);"/>
                </g>
                <g transform="matrix(1.73979,0,0,1.73979,88.0926,249.291)">
                    <text x="69.178px" y="288.009px" style="font-family:'Arial-BoldMT', 'Arial', sans-serif;font-weight:700;font-size:402.348px;">M</text>
                    <path d="M80.421,-17.243L80.421,305.252L168.934,305.252L168.934,200.663C168.934,200.663 195.217,305.252 195.217,305.252L278.09,305.252L304.581,200.199L304.581,305.252L393.094,305.252L393.094,-17.243L275.328,-17.243L236.859,129.024L197.952,-17.243L80.421,-17.243ZM97.664,288.009L97.664,0L184.696,0L236.954,196.459L288.623,0L375.85,0L375.85,288.009L321.824,288.009L321.824,61.295L264.655,288.009L208.664,288.009L151.691,61.295L151.691,288.009L97.664,288.009Z" style="fill:white;fill-opacity:0.5;"/>
                </g>
            </g>
        </g>
    </g>
</svg>
