<?xml version="1.0" encoding="UTF-8" standalone="no"?>
<!DOCTYPE svg PUBLIC "-//W3C//DTD SVG 1.1//EN" "http://www.w3.org/Graphics/SVG/1.1/DTD/svg11.dtd">
<svg width="100%" height="100%" viewBox="0 0 1001 1001" version="1.1" xmlns="http://www.w3.org/2000/svg" xmlns:xlink="http://www.w3.org/1999/xlink" xml:space="preserve" xmlns:serif="http://www.serif.com/" style="fill-rule:evenodd;clip-rule:evenodd;stroke-linejoin:round;stroke-miterlimit:2;">
    <g transform="matrix(1,0,0,1,-8112,-4135)">
        <g transform="matrix(1.29351,-5.9431e-16,-3.14887e-17,-2.79676,329.545,14688.4)">
            <g id="plus" transform="matrix(0.773088,-1.64281e-16,-8.70421e-18,-0.357557,6016.92,3773.38)">
                <rect x="0" y="0" width="1000" height="1000" style="fill:none;"/>
                <g transform="matrix(0.64468,0,0,0.64468,171.573,-1207.89)">
                    <circle cx="509.441" cy="2649.2" r="500" style="fill:white;"/>
                    <path d="M509.441,2149.2C785.399,2149.2 1009.44,2373.25 1009.44,2649.2C1009.44,2925.16 785.399,3149.2 509.441,3149.2C233.484,3149.2 9.441,2925.16 9.441,2649.2C9.441,2373.25 233.484,2149.2 509.441,2149.2ZM509.441,2257.79C725.472,2257.79 900.86,2433.18 900.86,2649.2C900.86,2865.24 725.472,3040.62 509.441,3040.62C293.411,3040.62 118.023,2865.24 118.023,2649.2C118.023,2433.18 293.411,2257.79 509.441,2257.79Z"/>
                </g>
                <g transform="matrix(2.11187,0,0,2.11187,1.06581e-13,246.019)">
                    <text x="139.974px" y="237.266px" style="font-family:'Arial-BoldMT', 'Arial', sans-serif;font-weight:700;font-size:331.46px;">+</text>
                </g>
            </g>
        </g>
    </g>
</svg>
