<?xml version="1.0" encoding="UTF-8" standalone="no"?>
<!DOCTYPE svg PUBLIC "-//W3C//DTD SVG 1.1//EN" "http://www.w3.org/Graphics/SVG/1.1/DTD/svg11.dtd">
<svg width="100%" height="100%" viewBox="0 0 2001 1001" version="1.1" xmlns="http://www.w3.org/2000/svg" xmlns:xlink="http://www.w3.org/1999/xlink" xml:space="preserve" xmlns:serif="http://www.serif.com/" style="fill-rule:evenodd;clip-rule:evenodd;stroke-linejoin:round;stroke-miterlimit:2;">
    <g transform="matrix(1,0,0,1,-13419,-4408)">
        <g transform="matrix(1,-9.86076e-32,0,1,7741.7,-4189.49)">
            <g id="RE" transform="matrix(2,0,0,1,5677.51,8597.62)">
                <rect x="0" y="0" width="1000" height="1000" style="fill:none;"/>
                <clipPath id="_clip1">
                    <rect x="0" y="0" width="1000" height="1000"/>
                </clipPath>
                <g clip-path="url(#_clip1)">
                    <g transform="matrix(0.5,0,0,1,-1160.22,-3249.63)">
                        <path d="M4320.45,3749.63C4320.45,3473.67 4096.41,3249.63 3820.45,3249.63L2820.45,3249.63C2544.49,3249.63 2320.45,3473.67 2320.45,3749.63C2320.45,4025.59 2544.49,4249.63 2820.45,4249.63L3820.45,4249.63C4096.41,4249.63 4320.45,4025.59 4320.45,3749.63Z"/>
                    </g>
                    <g transform="matrix(0.471481,0,0,0.885923,-1065.53,-2821.89)">
                        <path d="M4320.45,3749.63C4320.45,3473.67 4109.96,3249.63 3850.69,3249.63L2790.2,3249.63C2530.94,3249.63 2320.45,3473.67 2320.45,3749.63C2320.45,4025.59 2530.94,4249.63 2790.2,4249.63L3850.69,4249.63C4109.96,4249.63 4320.45,4025.59 4320.45,3749.63Z" style="fill:white;"/>
                    </g>
                    <g transform="matrix(0.440427,0,0,0.761706,-962.414,-2356.12)">
                        <path d="M4320.45,3749.63C4320.45,3473.67 4126.71,3249.63 3888.08,3249.63L2752.82,3249.63C2514.19,3249.63 2320.45,3473.67 2320.45,3749.63C2320.45,4025.59 2514.19,4249.63 2752.82,4249.63L3888.08,4249.63C4126.71,4249.63 4320.45,4025.59 4320.45,3749.63Z" style="fill:url(#_Linear2);"/>
                    </g>
                    <g transform="matrix(0.869893,0,0,1.73979,4.1922e-13,249.291)">
                        <g id="High">
                            <text x="295.32px" y="288.009px" style="font-family:'Arial-BoldMT', 'Arial', sans-serif;font-weight:700;font-size:402.348px;">RE</text>
                            <path d="M400.184,185.082C408.173,185.247 414.221,185.86 418.289,187.288C422.081,188.619 425.556,191.246 428.945,194.837C434.141,200.342 443.683,213.749 457.786,234.903L457.8,234.924C457.813,234.945 504.979,305.252 504.979,305.252L583.722,305.252L598.339,278.861L563.191,222.704C548.502,199.008 536.724,182.589 528.061,173.302C526.394,171.514 524.647,169.751 522.82,168.013C535.452,162.422 545.847,154.966 554.089,145.831C569.559,128.686 577.587,107.061 577.587,80.745C577.587,60.244 572.428,42.061 562.335,26.133C551.824,9.545 537.762,-1.92 520.27,-8.407C505.065,-14.046 480.733,-17.243 447.183,-17.243C447.183,-17.243 307.545,-17.243 307.545,-17.243L307.545,305.252L400.184,305.252L400.184,185.082ZM324.789,288.009L324.789,0L447.183,0C477.961,0 500.325,2.587 514.274,7.76C528.222,12.934 539.388,22.134 547.77,35.363C556.152,48.591 560.343,63.718 560.343,80.745C560.343,102.355 553.991,120.2 541.287,134.28C528.582,148.359 509.591,157.233 484.314,160.9C496.887,168.234 507.267,176.289 515.452,185.064C523.638,193.84 534.673,209.425 548.556,231.822L583.722,288.009L514.175,288.009L472.133,225.339C457.202,202.942 446.986,188.83 441.486,183.002C435.985,177.173 430.156,173.179 424.001,171.018C417.845,168.857 408.088,167.776 394.728,167.776L382.941,167.776L382.941,288.009L324.789,288.009ZM382.941,121.805L425.965,121.805C453.862,121.805 471.282,120.626 478.223,118.268C485.165,115.911 490.6,111.851 494.529,106.088C498.459,100.325 500.423,93.122 500.423,84.477C500.423,74.785 497.837,66.96 492.663,61.001C487.49,55.041 480.188,51.276 470.758,49.704C466.043,49.049 451.898,48.722 428.323,48.722L382.941,48.722L382.941,121.805ZM400.184,104.561L400.184,65.965C400.184,65.965 428.323,65.965 428.323,65.965C450.217,65.965 463.498,66.159 468.162,66.754C473.024,67.595 476.962,69.217 479.642,72.305C482.294,75.36 483.18,79.509 483.18,84.477C483.18,89.203 482.43,93.224 480.282,96.374C478.463,99.042 475.892,100.849 472.678,101.941C466.478,104.047 450.884,104.561 425.965,104.561L400.184,104.561Z" style="fill:white;fill-opacity:0.5;"/>
                            <path d="M597.912,-17.243L597.912,305.252L851.451,305.252L851.451,222.24L690.551,222.24C690.551,222.24 690.551,178.34 690.551,178.34L835.145,178.34L835.145,95.328L690.551,95.328C690.551,95.328 690.551,65.965 690.551,65.965C690.551,65.965 845.95,65.965 845.95,65.965L845.95,-17.243L597.912,-17.243ZM615.155,288.009L615.155,0L828.706,0L828.706,48.722L673.307,48.722L673.307,112.571L817.901,112.571L817.901,161.096L673.307,161.096L673.307,239.484L834.207,239.484L834.207,288.009L615.155,288.009Z" style="fill:white;fill-opacity:0.5;"/>
                        </g>
                    </g>
                </g>
            </g>
        </g>
    </g>
    <defs>
        <linearGradient id="_Linear2" x1="0" y1="0" x2="1" y2="0" gradientUnits="userSpaceOnUse" gradientTransform="matrix(2000,0,0,1000,2320.45,3749.63)"><stop offset="0" style="stop-color:rgb(253,254,159);stop-opacity:1"/><stop offset="0.04" style="stop-color:rgb(243,248,169);stop-opacity:1"/><stop offset="0.1" style="stop-color:rgb(240,247,172);stop-opacity:1"/><stop offset="0.28" style="stop-color:rgb(171,213,237);stop-opacity:1"/><stop offset="0.5" style="stop-color:rgb(153,204,255);stop-opacity:1"/><stop offset="0.72" style="stop-color:rgb(172,214,236);stop-opacity:1"/><stop offset="0.9" style="stop-color:rgb(243,249,168);stop-opacity:1"/><stop offset="1" style="stop-color:rgb(253,254,159);stop-opacity:1"/></linearGradient>
    </defs>
</svg>
