<?xml version="1.0" encoding="UTF-8" standalone="no"?>
<!DOCTYPE svg PUBLIC "-//W3C//DTD SVG 1.1//EN" "http://www.w3.org/Graphics/SVG/1.1/DTD/svg11.dtd">
<svg width="100%" height="100%" viewBox="0 0 2001 1001" version="1.1" xmlns="http://www.w3.org/2000/svg" xmlns:xlink="http://www.w3.org/1999/xlink" xml:space="preserve" xmlns:serif="http://www.serif.com/" style="fill-rule:evenodd;clip-rule:evenodd;stroke-linejoin:round;stroke-miterlimit:2;">
    <g transform="matrix(1,0,0,1,-17862,-4406)">
        <g transform="matrix(1,-9.86076e-32,0,1,7741.7,-4189.49)">
            <g id="SC" transform="matrix(2,0,0,1,10121,8595.98)">
                <rect x="0" y="0" width="1000" height="1000" style="fill:none;"/>
                <clipPath id="_clip1">
                    <rect x="0" y="0" width="1000" height="1000"/>
                </clipPath>
                <g clip-path="url(#_clip1)">
                    <g transform="matrix(0.5,0,0,1,-1160.22,-3249.63)">
                        <path d="M4320.45,3749.63C4320.45,3473.67 4096.41,3249.63 3820.45,3249.63L2820.45,3249.63C2544.49,3249.63 2320.45,3473.67 2320.45,3749.63C2320.45,4025.59 2544.49,4249.63 2820.45,4249.63L3820.45,4249.63C4096.41,4249.63 4320.45,4025.59 4320.45,3749.63Z"/>
                    </g>
                    <g transform="matrix(0.471481,0,0,0.885923,-1065.53,-2821.89)">
                        <path d="M4320.45,3749.63C4320.45,3473.67 4109.96,3249.63 3850.69,3249.63L2790.2,3249.63C2530.94,3249.63 2320.45,3473.67 2320.45,3749.63C2320.45,4025.59 2530.94,4249.63 2790.2,4249.63L3850.69,4249.63C4109.96,4249.63 4320.45,4025.59 4320.45,3749.63Z" style="fill:white;"/>
                    </g>
                    <g transform="matrix(0.440427,0,0,0.761706,-962.414,-2356.12)">
                        <path d="M4320.45,3749.63C4320.45,3473.67 4126.71,3249.63 3888.08,3249.63L2752.82,3249.63C2514.19,3249.63 2320.45,3473.67 2320.45,3749.63C2320.45,4025.59 2514.19,4249.63 2752.82,4249.63L3888.08,4249.63C4126.71,4249.63 4320.45,4025.59 4320.45,3749.63Z" style="fill:url(#_Linear2);"/>
                    </g>
                    <g transform="matrix(0.869893,0,0,1.73979,4.1922e-13,249.462)">
                        <g id="High">
                            <text x="295.32px" y="288.009px" style="font-family:'Arial-BoldMT', 'Arial', sans-serif;font-weight:700;font-size:402.348px;">SC</text>
                            <path d="M379.762,170.177L290.673,178.838L292.733,196.317C297.114,233.476 311.059,261.52 333.566,280.93C355.753,300.064 387.321,310.36 428.716,310.36C456.4,310.36 479.483,306.271 498.036,298.516C518.232,290.075 533.788,277.099 544.833,259.743C555.829,242.463 561.281,223.914 561.281,204.121C561.281,182.285 556.396,164.017 547.206,149.172C537.938,134.201 525.149,122.352 508.752,113.718C501.276,109.781 491.712,105.866 480.042,102.025L553.611,98.794L553.019,81.719C551.921,50.034 540.185,24.814 518.303,5.834C497.447,-12.256 466.64,-22.155 425.376,-22.155C400.586,-22.155 379.458,-18.233 361.929,-10.752C342.888,-2.625 328.414,9.336 318.296,24.872C308.081,40.556 303.027,57.423 303.027,75.44C303.027,103.258 313.701,126.892 335.283,146.236L335.285,146.238C345.101,155.031 359.867,163.146 379.762,170.177ZM309.858,194.298L366.438,188.797C369.843,207.788 376.752,221.737 387.165,230.643C397.577,239.549 411.624,244.002 429.305,244.002C448.034,244.002 462.147,240.04 471.642,232.116C481.138,224.193 485.885,214.926 485.885,204.317C485.885,197.507 483.888,191.711 479.893,186.931C475.899,182.15 468.924,177.992 458.97,174.456C452.16,172.098 436.64,167.907 412.41,161.882C381.238,154.155 359.366,144.659 346.792,133.396C329.111,117.548 320.27,98.23 320.27,75.44C320.27,60.771 324.429,47.052 332.745,34.282C341.062,21.512 353.046,11.788 368.697,5.108C384.349,-1.572 403.242,-4.911 425.376,-4.911C461.524,-4.911 488.734,3.012 507.005,18.86C525.275,34.708 534.869,55.86 535.786,82.316L477.634,84.87C475.146,70.07 469.808,59.429 461.623,52.946C453.437,46.463 441.158,43.221 424.787,43.221C407.891,43.221 394.663,46.692 385.102,53.633C378.946,58.086 375.868,64.046 375.868,71.511C375.868,78.322 378.75,84.15 384.512,88.996C391.847,95.152 409.659,101.569 437.949,108.249C466.239,114.929 487.162,121.837 500.718,128.975C514.274,136.113 524.882,145.871 532.544,158.248C540.206,170.625 544.037,185.916 544.037,204.121C544.037,220.623 539.453,236.078 530.285,250.485C521.117,264.892 508.151,275.599 491.386,282.606C474.622,289.613 453.732,293.117 428.716,293.117C392.305,293.117 364.343,284.702 344.828,267.872C325.313,251.042 313.656,226.517 309.858,194.298ZM380.676,170.499L383.411,185.754C385.973,200.041 390.54,210.839 398.373,217.539C405.975,224.042 416.396,226.759 429.305,226.759C443.048,226.759 453.627,224.691 460.594,218.877C465.651,214.657 468.642,209.968 468.642,204.317C468.642,201.861 468.102,199.712 466.661,197.988C464.16,194.994 459.486,192.941 453.24,190.719C446.601,188.432 431.598,184.422 408.251,178.617C398.17,176.117 388.983,173.403 380.676,170.499ZM462.125,96.627L460.629,87.73C459,78.041 456.275,70.707 450.917,66.463C445.156,61.901 436.307,60.464 424.787,60.464C412.268,60.464 402.317,62.444 395.221,67.596L395.209,67.604C393.852,68.586 393.112,69.866 393.112,71.511C393.112,73.241 394.141,74.562 395.604,75.793C401.922,81.09 417.566,85.719 441.912,91.467C449.099,93.164 455.838,94.884 462.125,96.627Z" style="fill:white;fill-opacity:0.5;"/>
                            <path d="M782.446,165.681L764.618,160.028L760.429,178.255C756.56,195.088 750.744,207.711 741.857,215.552C733.918,222.557 724.406,225.973 713.385,225.973C697.845,225.973 685.173,220.346 675.461,208.886C664.289,195.704 659.903,173.293 659.903,142.236C659.903,113.262 664.401,92.017 675.625,79.078C685.57,67.615 698.594,62.036 714.564,62.036C725.765,62.036 735.35,64.959 743.182,71.224C751.013,77.489 755.99,86.135 758.458,96.956L762.332,113.941L854.335,91.961L849.419,74.657C841.883,48.129 830.263,27.954 815.193,13.78C790.122,-9.937 757.648,-22.155 717.511,-22.155C671.913,-22.155 635.245,-6.873 607.264,23.106C579.854,52.474 565.496,93.479 565.496,146.558C565.496,196.957 579.741,236.494 607.125,265.553C635.043,295.179 670.612,310.164 713.974,310.164C749.138,310.164 778.048,301.127 800.92,283.768C823.726,266.459 840.438,240.226 850.244,204.568L854.643,188.572L782.446,165.681ZM777.234,182.118L833.618,199.995C824.974,231.429 810.599,254.775 790.495,270.033C770.391,285.291 744.884,292.92 713.974,292.92C675.73,292.92 644.297,279.856 619.674,253.727C595.051,227.598 582.74,191.875 582.74,146.558C582.74,98.622 595.117,61.393 619.87,34.871C644.624,8.35 677.171,-4.911 717.511,-4.911C752.742,-4.911 781.36,5.501 803.363,26.326C816.46,38.637 826.283,56.318 832.832,79.369L775.269,93.122C771.864,78.191 764.759,66.403 753.954,57.759C743.148,49.115 730.018,44.793 714.564,44.793C693.215,44.793 675.894,52.455 662.6,67.778C649.306,83.102 642.66,107.921 642.66,142.236C642.66,178.647 649.208,204.579 662.306,220.034C675.403,235.489 692.429,243.216 713.385,243.216C728.84,243.216 742.133,238.305 753.266,228.482C764.399,218.659 772.388,203.204 777.234,182.118Z" style="fill:white;fill-opacity:0.5;"/>
                        </g>
                    </g>
                </g>
            </g>
        </g>
    </g>
    <defs>
        <linearGradient id="_Linear2" x1="0" y1="0" x2="1" y2="0" gradientUnits="userSpaceOnUse" gradientTransform="matrix(2000,0,0,1000,2320.45,3749.63)"><stop offset="0" style="stop-color:rgb(103,204,255);stop-opacity:1"/><stop offset="0.15" style="stop-color:rgb(103,204,255);stop-opacity:1"/><stop offset="0.31" style="stop-color:rgb(223,244,255);stop-opacity:1"/><stop offset="0.5" style="stop-color:white;stop-opacity:1"/><stop offset="0.69" style="stop-color:rgb(223,244,255);stop-opacity:1"/><stop offset="0.85" style="stop-color:rgb(103,204,255);stop-opacity:1"/><stop offset="1" style="stop-color:rgb(103,204,255);stop-opacity:1"/></linearGradient>
    </defs>
</svg>
