<?xml version="1.0" encoding="UTF-8" standalone="no"?>
<!DOCTYPE svg PUBLIC "-//W3C//DTD SVG 1.1//EN" "http://www.w3.org/Graphics/SVG/1.1/DTD/svg11.dtd">
<svg width="100%" height="100%" viewBox="0 0 2001 1001" version="1.1" xmlns="http://www.w3.org/2000/svg" xmlns:xlink="http://www.w3.org/1999/xlink" xml:space="preserve" xmlns:serif="http://www.serif.com/" style="fill-rule:evenodd;clip-rule:evenodd;stroke-linejoin:round;stroke-miterlimit:2;">
    <g transform="matrix(1,0,0,1,-17861,-3150)">
        <g transform="matrix(1,-9.86076e-32,0,1,7741.7,-4189.49)">
            <g id="SG" transform="matrix(2,0,0,1,10119.8,7339.75)">
                <rect x="0" y="0" width="1000" height="1000" style="fill:none;"/>
                <clipPath id="_clip1">
                    <rect x="0" y="0" width="1000" height="1000"/>
                </clipPath>
                <g clip-path="url(#_clip1)">
                    <g transform="matrix(0.5,0,0,1,-1160.22,-3249.63)">
                        <path d="M4320.45,3749.63C4320.45,3473.67 4096.41,3249.63 3820.45,3249.63L2820.45,3249.63C2544.49,3249.63 2320.45,3473.67 2320.45,3749.63C2320.45,4025.59 2544.49,4249.63 2820.45,4249.63L3820.45,4249.63C4096.41,4249.63 4320.45,4025.59 4320.45,3749.63Z"/>
                    </g>
                    <g transform="matrix(0.471481,0,0,0.885923,-1065.53,-2821.89)">
                        <path d="M4320.45,3749.63C4320.45,3473.67 4109.96,3249.63 3850.69,3249.63L2790.2,3249.63C2530.94,3249.63 2320.45,3473.67 2320.45,3749.63C2320.45,4025.59 2530.94,4249.63 2790.2,4249.63L3850.69,4249.63C4109.96,4249.63 4320.45,4025.59 4320.45,3749.63Z" style="fill:white;"/>
                    </g>
                    <g transform="matrix(0.440427,0,0,0.761706,-962.414,-2356.12)">
                        <path d="M4320.45,3749.63C4320.45,3473.67 4126.71,3249.63 3888.08,3249.63L2752.82,3249.63C2514.19,3249.63 2320.45,3473.67 2320.45,3749.63C2320.45,4025.59 2514.19,4249.63 2752.82,4249.63L3888.08,4249.63C4126.71,4249.63 4320.45,4025.59 4320.45,3749.63Z" style="fill:rgb(102,255,255);"/>
                    </g>
                    <g transform="matrix(0.869893,0,0,1.73979,4.1922e-13,249.291)">
                        <g id="High">
                            <text x="284.122px" y="288.009px" style="font-family:'Arial-BoldMT', 'Arial', sans-serif;font-weight:700;font-size:402.348px;">SG</text>
                            <path d="M368.563,170.177L279.474,178.838L281.535,196.317C285.915,233.476 299.861,261.52 322.368,280.93C344.554,300.064 376.123,310.36 417.518,310.36C445.202,310.36 468.285,306.271 486.838,298.516C507.034,290.075 522.59,277.099 533.635,259.743C544.631,242.463 550.083,223.914 550.083,204.121C550.083,182.285 545.198,164.017 536.008,149.172C526.74,134.201 513.951,122.352 497.554,113.718C490.078,109.781 480.513,105.866 468.844,102.025L542.413,98.794L541.821,81.719C540.723,50.034 528.987,24.814 507.105,5.834C486.249,-12.256 455.442,-22.155 414.178,-22.155C389.387,-22.155 368.26,-18.233 350.731,-10.752C331.69,-2.625 317.216,9.336 307.098,24.872C296.883,40.556 291.829,57.423 291.829,75.44C291.829,103.258 302.503,126.892 324.085,146.236L324.087,146.238C333.903,155.031 348.669,163.146 368.563,170.177ZM298.66,194.298L355.24,188.797C358.645,207.788 365.554,221.737 375.966,230.643C386.379,239.549 400.426,244.002 418.107,244.002C436.836,244.002 450.948,240.04 460.444,232.116C469.939,224.193 474.687,214.926 474.687,204.317C474.687,197.507 472.69,191.711 468.695,186.931C464.7,182.15 457.726,177.992 447.772,174.456C440.962,172.098 425.441,167.907 401.211,161.882C370.04,154.155 348.168,144.659 335.594,133.396C317.913,117.548 309.072,98.23 309.072,75.44C309.072,60.771 313.231,47.052 321.547,34.282C329.864,21.512 341.848,11.788 357.499,5.108C373.151,-1.572 392.043,-4.911 414.178,-4.911C450.326,-4.911 477.536,3.012 495.806,18.86C514.077,34.708 523.671,55.86 524.588,82.316L466.436,84.87C463.947,70.07 458.61,59.429 450.424,52.946C442.239,46.463 429.96,43.221 413.588,43.221C396.693,43.221 383.465,46.692 373.904,53.633C367.748,58.086 364.67,64.046 364.67,71.511C364.67,78.322 367.551,84.15 373.314,88.996C380.649,95.152 398.461,101.569 426.751,108.249C455.041,114.929 475.964,121.837 489.52,128.975C503.075,136.113 513.684,145.871 521.346,158.248C529.008,170.625 532.839,185.916 532.839,204.121C532.839,220.623 528.255,236.078 519.087,250.485C509.919,264.892 496.952,275.599 480.188,282.606C463.423,289.613 442.533,293.117 417.518,293.117C381.107,293.117 353.144,284.702 333.63,267.872C314.115,251.042 302.458,226.517 298.66,194.298ZM369.477,170.499L372.213,185.754C374.775,200.041 379.342,210.839 387.175,217.539C394.777,224.042 405.197,226.759 418.107,226.759C431.85,226.759 442.428,224.691 449.396,218.877C454.453,214.657 457.444,209.968 457.444,204.317C457.444,201.861 456.904,199.712 455.463,197.988L455.463,197.988C452.962,194.994 448.288,192.941 442.041,190.719C435.402,188.432 420.4,184.422 397.052,178.617C386.972,176.117 377.785,173.403 369.477,170.499ZM450.927,96.627L449.431,87.73C447.802,78.041 445.077,70.707 439.719,66.463C433.958,61.901 425.109,60.464 413.588,60.464C401.069,60.464 391.119,62.444 384.022,67.596L384.01,67.604C382.654,68.586 381.914,69.866 381.914,71.511C381.914,73.241 382.943,74.562 384.406,75.793C390.724,81.09 406.368,85.719 430.714,91.467C437.901,93.164 444.64,94.884 450.927,96.627Z" style="fill:white;fill-opacity:0.5;"/>
                            <path d="M698.499,116.349L698.499,199.361L765.099,199.361C765.098,199.361 765.098,209.727 765.098,209.727C759.025,213.601 752.165,217.006 744.54,219.983C734.387,223.946 724.27,225.973 714.171,225.973C694.899,225.973 679.226,219.5 667.335,206.122C654.456,191.633 648.901,169.643 648.901,140.665C648.901,114.278 654.289,94.118 666.774,80.706C678.608,67.993 694.709,62.036 714.76,62.036C727.421,62.036 738.071,64.81 746.528,70.992C754.642,76.923 760.076,85.076 763.017,95.325L767.345,110.401L857.979,93.446L854.199,76.092C847.487,45.278 832.276,21.228 808.86,3.761C786.242,-13.11 754.986,-22.155 714.76,-22.155C684.084,-22.155 658.502,-16.556 637.901,-5.896C610.466,8.198 589.66,28.477 575.421,54.878C561.556,80.587 554.494,109.948 554.494,143.022C554.494,173.345 560.723,201.394 573.083,227.19C585.921,253.987 605.121,274.573 630.649,288.979C655.466,302.985 684.523,310.164 717.903,310.164C743.714,310.164 769.208,305.306 794.376,295.538C820.062,285.57 839.541,273.813 853.075,260.715L858.327,255.633L858.327,116.349L698.499,116.349ZM715.742,182.118L715.742,133.592L841.083,133.592L841.083,248.324C828.903,260.112 811.254,270.491 788.138,279.463C765.021,288.435 741.609,292.92 717.903,292.92C687.78,292.92 661.52,286.601 639.123,273.962C616.727,261.323 599.897,243.249 588.633,219.739C577.37,196.23 571.738,170.657 571.738,143.022C571.738,113.029 578.025,86.376 590.598,63.063C603.171,39.75 621.573,21.872 645.803,9.43C664.27,-0.131 687.256,-4.911 714.76,-4.911C750.516,-4.911 778.446,2.587 798.55,17.583C818.654,32.579 831.588,53.306 837.351,79.762L779.592,90.568C775.531,76.423 767.902,65.257 756.704,57.071C745.506,48.886 731.525,44.793 714.76,44.793C689.351,44.793 669.149,52.847 654.152,68.957C639.156,85.067 631.658,108.969 631.658,140.665C631.658,174.849 639.254,200.486 654.447,217.578C669.64,234.67 689.548,243.216 714.171,243.216C726.351,243.216 738.564,240.826 750.81,236.046C763.056,231.265 773.567,225.469 782.342,218.659L782.342,182.118L715.742,182.118Z" style="fill:white;fill-opacity:0.5;"/>
                        </g>
                    </g>
                </g>
            </g>
        </g>
    </g>
</svg>
