<?xml version="1.0" encoding="UTF-8" standalone="no"?>
<!DOCTYPE svg PUBLIC "-//W3C//DTD SVG 1.1//EN" "http://www.w3.org/Graphics/SVG/1.1/DTD/svg11.dtd">
<svg width="100%" height="100%" viewBox="0 0 2001 1001" version="1.1" xmlns="http://www.w3.org/2000/svg" xmlns:xlink="http://www.w3.org/1999/xlink" xml:space="preserve" xmlns:serif="http://www.serif.com/" style="fill-rule:evenodd;clip-rule:evenodd;stroke-linejoin:round;stroke-miterlimit:2;">
    <g transform="matrix(1,0,0,1,-17808,-7498)">
        <g transform="matrix(1,-9.86076e-32,0,1,7741.7,-4189.49)">
            <g id="SLow" transform="matrix(2,0,0,1,10066.3,11688.3)">
                <rect x="0" y="0" width="1000" height="1000" style="fill:none;"/>
                <clipPath id="_clip1">
                    <rect x="0" y="0" width="1000" height="1000"/>
                </clipPath>
                <g clip-path="url(#_clip1)">
                    <g transform="matrix(0.5,0,0,1,-1160.22,-3249.63)">
                        <path d="M4320.45,3749.63C4320.45,3473.67 4096.41,3249.63 3820.45,3249.63L2820.45,3249.63C2544.49,3249.63 2320.45,3473.67 2320.45,3749.63C2320.45,4025.59 2544.49,4249.63 2820.45,4249.63L3820.45,4249.63C4096.41,4249.63 4320.45,4025.59 4320.45,3749.63Z"/>
                    </g>
                    <g transform="matrix(0.471481,0,0,0.885923,-1065.53,-2821.89)">
                        <path d="M4320.45,3749.63C4320.45,3473.67 4109.96,3249.63 3850.69,3249.63L2790.2,3249.63C2530.94,3249.63 2320.45,3473.67 2320.45,3749.63C2320.45,4025.59 2530.94,4249.63 2790.2,4249.63L3850.69,4249.63C4109.96,4249.63 4320.45,4025.59 4320.45,3749.63Z" style="fill:white;"/>
                    </g>
                    <g transform="matrix(0.440427,0,0,0.761706,-962.414,-2356.12)">
                        <path d="M4320.45,3749.63C4320.45,3473.67 4126.71,3249.63 3888.08,3249.63L2752.82,3249.63C2514.19,3249.63 2320.45,3473.67 2320.45,3749.63C2320.45,4025.59 2514.19,4249.63 2752.82,4249.63L3888.08,4249.63C4126.71,4249.63 4320.45,4025.59 4320.45,3749.63Z" style="fill:rgb(153,204,255);"/>
                    </g>
                    <g transform="matrix(0.869893,0,0,1.73979,4.1922e-13,249.291)">
                        <g id="High">
                            <text x="317.716px" y="288.009px" style="font-family:'Arial-BoldMT', 'Arial', sans-serif;font-weight:700;font-size:402.348px;">SL</text>
                            <path d="M402.158,170.177L313.069,178.838L315.129,196.317C319.51,233.476 333.456,261.52 355.962,280.93C378.149,300.064 409.717,310.36 451.112,310.36C478.797,310.36 501.879,306.271 520.432,298.516C540.628,290.075 556.184,277.099 567.229,259.743C578.225,242.463 583.677,223.914 583.677,204.121C583.677,182.285 578.792,164.017 569.602,149.172C560.335,134.201 547.545,122.352 531.148,113.718C523.672,109.781 514.108,105.866 502.439,102.025L576.007,98.794L575.415,81.719C574.317,50.034 562.581,24.814 540.7,5.834C519.843,-12.256 489.036,-22.155 447.772,-22.155C422.982,-22.155 401.855,-18.233 384.325,-10.752C365.284,-2.625 350.811,9.336 340.693,24.872C330.478,40.556 325.423,57.423 325.423,75.44C325.423,103.258 336.097,126.892 357.68,146.236L357.681,146.238C367.497,155.031 382.263,163.146 402.158,170.177ZM332.254,194.298L388.835,188.797C392.24,207.788 399.149,221.737 409.561,230.643C419.973,239.549 434.02,244.002 451.701,244.002C470.431,244.002 484.543,240.04 494.038,232.116C503.534,224.193 508.282,214.926 508.282,204.317C508.282,197.507 506.284,191.711 502.29,186.931C498.295,182.15 491.321,177.992 481.367,174.456C474.556,172.098 459.036,167.907 434.806,161.882C403.634,154.155 381.762,144.659 369.189,133.396C351.507,117.548 342.667,98.23 342.667,75.44C342.667,60.771 346.825,47.052 355.142,34.282C363.459,21.512 375.443,11.788 391.094,5.108C406.745,-1.572 425.638,-4.911 447.772,-4.911C483.921,-4.911 511.13,3.012 529.401,18.86C547.672,34.708 557.265,55.86 558.182,82.316L500.03,84.87C497.542,70.07 492.205,59.429 484.019,52.946C475.833,46.463 463.554,43.221 447.183,43.221C430.287,43.221 417.059,46.692 407.498,53.633C401.342,58.086 398.265,64.046 398.265,71.511C398.265,78.322 401.146,84.15 406.909,88.996C414.243,95.152 432.056,101.569 460.346,108.249C488.636,114.929 509.559,121.837 523.114,128.975C536.67,136.113 547.279,145.871 554.941,158.248C562.603,170.625 566.434,185.916 566.434,204.121C566.434,220.623 561.849,236.078 552.681,250.485C543.513,264.892 530.547,275.599 513.782,282.606C497.018,289.613 476.128,293.117 451.112,293.117C414.702,293.117 386.739,284.702 367.224,267.872C347.709,251.042 336.053,226.517 332.254,194.298ZM403.072,170.499L405.807,185.754C408.369,200.041 412.936,210.839 420.769,217.539C428.372,224.042 438.792,226.759 451.701,226.759C465.444,226.759 476.023,224.691 482.99,218.877C488.048,214.657 491.038,209.968 491.038,204.317C491.038,201.861 490.498,199.712 489.058,197.988C486.556,194.994 481.883,192.941 475.636,190.719C468.997,188.432 453.994,184.422 430.647,178.617C420.567,176.117 411.379,173.403 403.072,170.499ZM484.522,96.627L483.026,87.73C481.397,78.041 478.672,70.707 473.313,66.463C467.553,61.901 458.704,60.464 447.183,60.464C434.664,60.464 424.713,62.444 417.617,67.596L417.605,67.604C416.248,68.586 415.508,69.866 415.508,71.511C415.508,73.241 416.538,74.562 418,75.793C424.318,81.09 439.962,85.719 464.308,91.467C471.496,93.164 478.234,94.884 484.522,96.627Z" style="fill:white;fill-opacity:0.5;"/>
                            <path d="M599.68,-14.886L599.68,305.252L836.913,305.252L836.913,222.24L692.319,222.24C692.319,222.24 692.319,-14.886 692.319,-14.886L599.68,-14.886ZM616.923,288.009L616.923,2.358L675.075,2.358L675.075,239.484L819.669,239.484L819.669,288.009L616.923,288.009Z" style="fill:white;fill-opacity:0.5;"/>
                        </g>
                    </g>
                </g>
            </g>
        </g>
    </g>
</svg>
