<?xml version="1.0" encoding="UTF-8" standalone="no"?><!DOCTYPE svg PUBLIC "-//W3C//DTD SVG 1.1//EN" "http://www.w3.org/Graphics/SVG/1.1/DTD/svg11.dtd"><svg width="100%" height="100%" viewBox="0 0 2001 1001" version="1.1" xmlns="http://www.w3.org/2000/svg" xmlns:xlink="http://www.w3.org/1999/xlink" xml:space="preserve" xmlns:serif="http://www.serif.com/" style="fill-rule:evenodd;clip-rule:evenodd;stroke-linejoin:round;stroke-miterlimit:2;"><rect id="SMid" x="0.013" y="0.029" width="2000" height="1000" style="fill:none;"/><clipPath id="_clip1"><rect x="0.013" y="0.029" width="2000" height="1000"/></clipPath><g clip-path="url(#_clip1)"><path d="M2000.01,500.029c-0,-275.957 -224.043,-500 -500,-500l-1000,0c-275.958,0 -500,224.043 -500,500c-0,275.958 224.042,500 500,500l1000,0c275.957,0 500,-224.042 500,-500Z"/><path d="M1942.98,500.029c-0,-244.477 -198.485,-442.962 -442.962,-442.962l-1000,0c-244.477,0 -442.962,198.485 -442.962,442.962c0,244.477 198.485,442.962 442.962,442.962l1000,-0c244.477,-0 442.962,-198.485 442.962,-442.962Z" style="fill:#fff;"/><path d="M1880.87,500.029c0,-210.198 -170.654,-380.853 -380.853,-380.853l-1000,-0c-210.199,-0 -380.853,170.655 -380.853,380.853c-0,210.199 170.654,380.853 380.853,380.853l1000,0c210.199,0 380.853,-170.654 380.853,-380.853Z" style="fill:#ffff0c;"/><g id="High" transform="matrix(1.73979,-1.71556e-31,0,1.73979,0.0129504,249.32)"><text x="273.022px" y="288.009px" style="font-family:'Arial-BoldMT', 'Arial', sans-serif;font-weight:700;font-size:402.348px;">SM</text><path d="M357.463,170.177l-89.088,8.661l2.06,17.479c4.381,37.159 18.326,65.203 40.833,84.613c22.187,19.134 53.755,29.43 95.15,29.43c27.684,0 50.767,-4.089 69.32,-11.844c20.196,-8.441 35.752,-21.417 46.797,-38.773c10.996,-17.28 16.448,-35.829 16.448,-55.622c-0,-21.836 -4.885,-40.104 -14.075,-54.949c-9.268,-14.971 -22.057,-26.82 -38.454,-35.454c-7.476,-3.937 -17.041,-7.852 -28.71,-11.693l73.569,-3.231l-0.592,-17.075c-1.098,-31.685 -12.834,-56.905 -34.716,-75.885c-20.856,-18.09 -51.663,-27.989 -92.927,-27.989c-24.79,0 -45.918,3.922 -63.447,11.403c-19.041,8.127 -33.515,20.088 -43.633,35.624c-10.215,15.684 -15.269,32.551 -15.269,50.568c-0,27.818 10.674,51.452 32.256,70.796l0.002,0.002c9.816,8.793 24.582,16.908 44.476,23.939Zm-69.903,24.121l56.58,-5.501c3.405,18.991 10.314,32.94 20.727,41.846c10.412,8.906 24.459,13.359 42.14,13.359c18.729,0 32.841,-3.962 42.337,-11.886c9.495,-7.923 14.243,-17.19 14.243,-27.799c0,-6.81 -1.997,-12.606 -5.992,-17.386c-3.994,-4.781 -10.969,-8.939 -20.923,-12.475c-6.81,-2.358 -22.331,-6.549 -46.56,-12.574c-31.172,-7.727 -53.044,-17.223 -65.618,-28.486c-17.681,-15.848 -26.522,-35.166 -26.522,-57.956c0,-14.669 4.159,-28.388 12.475,-41.158c8.317,-12.77 20.301,-22.494 35.952,-29.174c15.652,-6.68 34.544,-10.019 56.679,-10.019c36.148,-0 63.358,7.923 81.629,23.771c18.27,15.848 27.864,37 28.781,63.456l-58.152,2.554c-2.489,-14.8 -7.826,-25.441 -16.011,-31.924c-8.186,-6.483 -20.465,-9.725 -36.837,-9.725c-16.895,-0 -30.123,3.471 -39.684,10.412c-6.156,4.453 -9.234,10.413 -9.234,17.878c0,6.811 2.882,12.639 8.644,17.485c7.335,6.156 25.147,12.573 53.437,19.253c28.29,6.68 49.213,13.588 62.769,20.726c13.556,7.138 24.164,16.896 31.826,29.273c7.662,12.377 11.493,27.668 11.493,45.873c0,16.502 -4.584,31.957 -13.752,46.364c-9.168,14.407 -22.134,25.114 -38.899,32.121c-16.764,7.007 -37.655,10.511 -62.67,10.511c-36.411,-0 -64.373,-8.415 -83.888,-25.245c-19.515,-16.83 -31.172,-41.355 -34.97,-73.574Zm70.818,-23.799l2.735,15.255c2.562,14.287 7.129,25.085 14.962,31.785c7.602,6.503 18.022,9.22 30.932,9.22c13.743,-0 24.321,-2.068 31.289,-7.882c5.057,-4.22 8.048,-8.909 8.048,-14.56c-0,-2.456 -0.54,-4.605 -1.981,-6.329l0,-0c-2.501,-2.994 -7.175,-5.047 -13.422,-7.269c-6.638,-2.287 -21.641,-6.297 -44.989,-12.102c-10.08,-2.5 -19.267,-5.214 -27.574,-8.118Zm81.449,-73.872l-1.496,-8.897c-1.629,-9.689 -4.354,-17.023 -9.712,-21.267c-5.761,-4.562 -14.61,-5.999 -26.131,-5.999c-12.518,0 -22.469,1.98 -29.566,7.132l-0.012,0.008c-1.356,0.982 -2.096,2.262 -2.096,3.907c-0,1.73 1.029,3.051 2.492,4.282c6.318,5.297 21.962,9.926 46.308,15.674c7.187,1.697 13.926,3.417 20.213,5.16Z" style="fill:#fff;fill-opacity:0.5;"/><path d="M552.628,0l0,305.252l88.513,0l0,-104.589c0,0 26.284,104.589 26.284,104.589l82.872,0l26.491,-105.053l-0,105.053l88.513,0l0,-322.495l-117.766,-0l-38.469,146.267c0,0 -38.907,-146.267 -38.907,-146.267l-117.531,-0l0,17.243Zm17.244,288.009l-0,-288.009l87.031,0l52.258,196.459l51.669,-196.459l87.228,0l-0,288.009l-54.027,-0l0,-226.714l-57.169,226.714l-55.991,-0l-56.973,-226.714l-0,226.714l-54.026,-0Z" style="fill:#fff;fill-opacity:0.5;"/></g></g></svg>