<?xml version="1.0" encoding="UTF-8" standalone="no"?>
<!DOCTYPE svg PUBLIC "-//W3C//DTD SVG 1.1//EN" "http://www.w3.org/Graphics/SVG/1.1/DTD/svg11.dtd">
<svg width="100%" height="100%" viewBox="0 0 2001 1001" version="1.1" xmlns="http://www.w3.org/2000/svg" xmlns:xlink="http://www.w3.org/1999/xlink" xml:space="preserve" xmlns:serif="http://www.serif.com/" style="fill-rule:evenodd;clip-rule:evenodd;stroke-linejoin:round;stroke-miterlimit:2;">
    <g transform="matrix(1,0,0,1,-13414,-3150)">
        <g transform="matrix(1,-9.86076e-32,0,1,7741.7,-4189.49)">
            <g id="SS" transform="matrix(2,0,0,1,5673.05,7339.75)">
                <rect x="0" y="0" width="1000" height="1000" style="fill:none;"/>
                <clipPath id="_clip1">
                    <rect x="0" y="0" width="1000" height="1000"/>
                </clipPath>
                <g clip-path="url(#_clip1)">
                    <g transform="matrix(0.5,0,0,1,-1160.22,-3249.63)">
                        <path d="M4320.45,3749.63C4320.45,3473.67 4096.41,3249.63 3820.45,3249.63L2820.45,3249.63C2544.49,3249.63 2320.45,3473.67 2320.45,3749.63C2320.45,4025.59 2544.49,4249.63 2820.45,4249.63L3820.45,4249.63C4096.41,4249.63 4320.45,4025.59 4320.45,3749.63Z"/>
                    </g>
                    <g transform="matrix(0.471481,0,0,0.885923,-1065.53,-2821.89)">
                        <path d="M4320.45,3749.63C4320.45,3473.67 4109.96,3249.63 3850.69,3249.63L2790.2,3249.63C2530.94,3249.63 2320.45,3473.67 2320.45,3749.63C2320.45,4025.59 2530.94,4249.63 2790.2,4249.63L3850.69,4249.63C4109.96,4249.63 4320.45,4025.59 4320.45,3749.63Z" style="fill:white;"/>
                    </g>
                    <g transform="matrix(0.440427,0,0,0.761706,-962.414,-2356.12)">
                        <path d="M4320.45,3749.63C4320.45,3473.67 4126.71,3249.63 3888.08,3249.63L2752.82,3249.63C2514.19,3249.63 2320.45,3473.67 2320.45,3749.63C2320.45,4025.59 2514.19,4249.63 2752.82,4249.63L3888.08,4249.63C4126.71,4249.63 4320.45,4025.59 4320.45,3749.63Z" style="fill:rgb(204,102,255);"/>
                    </g>
                    <g transform="matrix(0.869893,0,0,1.73979,4.1922e-13,249.291)">
                        <g id="High">
                            <text x="306.42px" y="288.009px" style="font-family:'Arial-BoldMT', 'Arial', sans-serif;font-weight:700;font-size:402.348px;">SS</text>
                            <path d="M390.861,170.177L301.773,178.838L303.833,196.317C308.214,233.476 322.159,261.52 344.666,280.93C366.853,300.064 398.421,310.36 439.816,310.36C467.5,310.36 490.583,306.271 509.136,298.516C529.332,290.075 544.888,277.099 555.933,259.743C566.929,242.463 572.381,223.914 572.381,204.121C572.381,182.285 567.496,164.017 558.306,149.172C549.038,134.201 536.249,122.352 519.852,113.718C512.376,109.781 502.812,105.866 491.142,102.025L564.711,98.794L564.119,81.719C563.021,50.034 551.285,24.814 529.403,5.834C508.547,-12.256 477.74,-22.155 436.476,-22.155C411.686,-22.155 390.558,-18.233 373.029,-10.752C353.988,-2.625 339.514,9.336 329.396,24.872C319.181,40.556 314.127,57.423 314.127,75.44C314.127,103.258 324.801,126.892 346.383,146.236L346.385,146.238C356.201,155.031 370.967,163.146 390.861,170.177ZM320.958,194.298L377.538,188.797C380.943,207.788 387.852,221.737 398.265,230.643C408.677,239.549 422.724,244.002 440.405,244.002C459.134,244.002 473.246,240.04 482.742,232.116C492.237,224.193 496.985,214.926 496.985,204.317C496.985,197.507 494.988,191.711 490.993,186.931C486.999,182.15 480.024,177.992 470.07,174.456C463.26,172.098 447.74,167.907 423.51,161.882C392.338,154.155 370.466,144.659 357.892,133.396C340.211,117.548 331.37,98.23 331.37,75.44C331.37,60.771 335.529,47.052 343.845,34.282C352.162,21.512 364.146,11.788 379.797,5.108C395.449,-1.572 414.341,-4.911 436.476,-4.911C472.624,-4.911 499.834,3.012 518.105,18.86C536.375,34.708 545.969,55.86 546.886,82.316L488.734,84.87C486.245,70.07 480.908,59.429 472.723,52.946C464.537,46.463 452.258,43.221 435.886,43.221C418.991,43.221 405.763,46.692 396.202,53.633C390.046,58.086 386.968,64.046 386.968,71.511C386.968,78.322 389.85,84.15 395.612,88.996C402.947,95.152 420.759,101.569 449.049,108.249C477.339,114.929 498.262,121.837 511.818,128.975C525.374,136.113 535.982,145.871 543.644,158.248C551.306,170.625 555.137,185.916 555.137,204.121C555.137,220.623 550.553,236.078 541.385,250.485C532.217,264.892 519.251,275.599 502.486,282.606C485.722,289.613 464.831,293.117 439.816,293.117C403.405,293.117 375.443,284.702 355.928,267.872C336.413,251.042 324.756,226.517 320.958,194.298ZM391.776,170.499L394.511,185.754C397.073,200.041 401.64,210.839 409.473,217.539C417.075,224.042 427.495,226.759 440.405,226.759C454.148,226.759 464.726,224.691 471.694,218.877C476.751,214.657 479.742,209.968 479.742,204.317C479.742,201.861 479.202,199.712 477.761,197.988L477.761,197.988C475.26,194.994 470.586,192.941 464.339,190.719C457.701,188.432 442.698,184.422 419.35,178.617C409.27,176.117 400.083,173.403 391.776,170.499ZM473.225,96.627L471.729,87.73C470.1,78.041 467.375,70.707 462.017,66.463C456.256,61.901 447.407,60.464 435.886,60.464C423.368,60.464 413.417,62.444 406.321,67.596L406.308,67.604C404.952,68.586 404.212,69.866 404.212,71.511C404.212,73.241 405.241,74.562 406.704,75.793C413.022,81.09 428.666,85.719 453.012,91.467C460.199,93.164 466.938,94.884 473.225,96.627Z" style="fill:white;fill-opacity:0.5;"/>
                            <path d="M659.225,170.177L570.136,178.838L572.196,196.317C576.577,233.476 590.522,261.52 613.029,280.93C635.216,300.064 666.784,310.36 708.179,310.36C735.863,310.36 758.946,306.271 777.499,298.516C797.695,290.075 813.251,277.099 824.296,259.743C835.292,242.463 840.744,223.914 840.744,204.121C840.744,182.285 835.859,164.017 826.669,149.172C817.401,134.201 804.612,122.352 788.215,113.718C780.739,109.781 771.175,105.866 759.505,102.025L833.074,98.794L832.482,81.719C831.384,50.034 819.648,24.814 797.766,5.834C776.91,-12.256 746.103,-22.155 704.839,-22.155C680.049,-22.155 658.921,-18.233 641.392,-10.752C622.351,-2.625 607.877,9.336 597.759,24.872C587.544,40.556 582.49,57.423 582.49,75.44C582.49,103.258 593.164,126.892 614.746,146.236L614.748,146.238C624.564,155.031 639.33,163.146 659.225,170.177ZM589.321,194.298L645.901,188.797C649.306,207.788 656.215,221.737 666.628,230.643C677.04,239.549 691.087,244.002 708.768,244.002C727.497,244.002 741.609,240.04 751.105,232.116C760.601,224.193 765.348,214.926 765.348,204.317C765.348,197.507 763.351,191.711 759.356,186.931C755.362,182.15 748.387,177.992 738.433,174.456C731.623,172.098 716.103,167.907 691.873,161.882C660.701,154.155 638.829,144.659 626.255,133.396C608.574,117.548 599.733,98.23 599.733,75.44C599.733,60.771 603.892,47.052 612.208,34.282C620.525,21.512 632.509,11.788 648.16,5.108C663.812,-1.572 682.705,-4.911 704.839,-4.911C740.987,-4.911 768.197,3.012 786.468,18.86C804.738,34.708 814.332,55.86 815.249,82.316L757.097,84.87C754.609,70.07 749.271,59.429 741.086,52.946C732.9,46.463 720.621,43.221 704.25,43.221C687.354,43.221 674.126,46.692 664.565,53.633C658.409,58.086 655.331,64.046 655.331,71.511C655.331,78.322 658.213,84.15 663.975,88.996C671.31,95.152 689.122,101.569 717.412,108.249C745.702,114.929 766.625,121.837 780.181,128.975C793.737,136.113 804.345,145.871 812.007,158.248C819.669,170.625 823.5,185.916 823.5,204.121C823.5,220.623 818.916,236.078 809.748,250.485C800.58,264.892 787.614,275.599 770.849,282.606C754.085,289.613 733.194,293.117 708.179,293.117C671.768,293.117 643.806,284.702 624.291,267.872C604.776,251.042 593.119,226.517 589.321,194.298ZM660.139,170.499L662.874,185.754C665.436,200.041 670.003,210.839 677.836,217.539C685.438,224.042 695.859,226.759 708.768,226.759C722.511,226.759 733.09,224.691 740.057,218.877C745.114,214.657 748.105,209.968 748.105,204.317C748.105,201.861 747.565,199.712 746.124,197.988L746.124,197.988C743.623,194.994 738.949,192.941 732.703,190.719C726.064,188.432 711.061,184.422 687.714,178.617C677.633,176.117 668.446,173.403 660.139,170.499ZM741.588,96.627L740.092,87.73C738.463,78.041 735.738,70.707 730.38,66.463C724.619,61.901 715.77,60.464 704.25,60.464C691.731,60.464 681.78,62.444 674.684,67.596L674.672,67.604C673.315,68.586 672.575,69.866 672.575,71.511C672.575,73.241 673.604,74.562 675.067,75.793C681.385,81.09 697.029,85.719 721.375,91.467C728.562,93.164 735.301,94.884 741.588,96.627Z" style="fill:white;fill-opacity:0.5;"/>
                        </g>
                    </g>
                </g>
            </g>
        </g>
    </g>
</svg>
