<?xml version="1.0" encoding="UTF-8" standalone="no"?>
<!DOCTYPE svg PUBLIC "-//W3C//DTD SVG 1.1//EN" "http://www.w3.org/Graphics/SVG/1.1/DTD/svg11.dtd">
<svg width="100%" height="100%" viewBox="0 0 2001 1001" version="1.1" xmlns="http://www.w3.org/2000/svg" xmlns:xlink="http://www.w3.org/1999/xlink" xml:space="preserve" xmlns:serif="http://www.serif.com/" style="fill-rule:evenodd;clip-rule:evenodd;stroke-linejoin:round;stroke-miterlimit:2;">
    <g transform="matrix(1,0,0,1,-15715,-3150)">
        <g transform="matrix(1,-9.86076e-32,0,1,7741.7,-4189.49)">
            <g id="UA" transform="matrix(2,0,0,1,7974.02,7339.75)">
                <rect x="0" y="0" width="1000" height="1000" style="fill:none;"/>
                <clipPath id="_clip1">
                    <rect x="0" y="0" width="1000" height="1000"/>
                </clipPath>
                <g clip-path="url(#_clip1)">
                    <g transform="matrix(0.5,0,0,1,-1160.22,-3249.63)">
                        <path d="M4320.45,3749.63C4320.45,3473.67 4096.41,3249.63 3820.45,3249.63L2820.45,3249.63C2544.49,3249.63 2320.45,3473.67 2320.45,3749.63C2320.45,4025.59 2544.49,4249.63 2820.45,4249.63L3820.45,4249.63C4096.41,4249.63 4320.45,4025.59 4320.45,3749.63Z"/>
                    </g>
                    <g transform="matrix(0.471481,0,0,0.885923,-1065.53,-2821.89)">
                        <path d="M4320.45,3749.63C4320.45,3473.67 4109.96,3249.63 3850.69,3249.63L2790.2,3249.63C2530.94,3249.63 2320.45,3473.67 2320.45,3749.63C2320.45,4025.59 2530.94,4249.63 2790.2,4249.63L3850.69,4249.63C4109.96,4249.63 4320.45,4025.59 4320.45,3749.63Z" style="fill:white;"/>
                    </g>
                    <g transform="matrix(0.440427,0,0,0.761706,-962.414,-2356.12)">
                        <path d="M4320.45,3749.63C4320.45,3473.67 4126.71,3249.63 3888.08,3249.63L2752.82,3249.63C2514.19,3249.63 2320.45,3473.67 2320.45,3749.63C2320.45,4025.59 2514.19,4249.63 2752.82,4249.63L3888.08,4249.63C4126.71,4249.63 4320.45,4025.59 4320.45,3749.63Z" style="fill:rgb(255,1,1);"/>
                    </g>
                    <g transform="matrix(0.869893,0,0,1.73979,4.1922e-13,249.291)">
                        <g id="High">
                            <text x="284.22px" y="288.009px" style="font-family:'Arial-BoldMT', 'Arial', sans-serif;font-weight:700;font-size:402.348px;">UA</text>
                            <path d="M388.495,-17.243L295.856,-17.243L295.856,153.631C295.856,187.56 297.993,213.203 301.993,230.581L302.002,230.622C305.195,244.193 311.695,257.179 321.723,269.515C331.551,281.606 344.832,291.568 361.759,299.134C377.582,306.208 400.742,310.164 431.368,310.164C456.876,310.164 477.506,306.645 493.339,300.121C510.236,293.159 523.64,283.679 533.732,271.945C543.954,260.059 551.082,245.535 554.885,228.261C558.188,213.26 560.004,187.605 560.004,151.273L560.004,-17.243L467.365,-17.243L467.365,159.328C467.365,180.743 466.664,196.071 465.064,205.302C464.074,211.015 460.992,215.741 456.117,219.665C450.209,224.418 441.231,225.973 429.6,225.973C417.844,225.973 408.424,223.962 401.645,218.795C395.675,214.245 391.927,208.195 390.314,200.698C388.986,193.793 388.495,178.892 388.495,155.988C388.495,155.988 388.495,-17.243 388.495,-17.243ZM313.1,0L371.251,0L371.251,155.988C371.251,180.742 371.972,196.786 373.413,204.121C375.901,215.908 381.827,225.371 391.192,232.509C400.557,239.647 413.359,243.216 429.6,243.216C446.102,243.216 458.545,239.844 466.927,233.099C475.309,226.354 480.352,218.07 482.054,208.247C483.757,198.424 484.608,182.118 484.608,159.328L484.608,0L542.76,0L542.76,151.273C542.76,185.85 541.189,210.277 538.045,224.553C534.902,238.829 529.106,250.878 520.659,260.701C512.211,270.524 500.914,278.35 486.769,284.178C472.624,290.006 454.157,292.92 431.368,292.92C403.864,292.92 383.006,289.744 368.796,283.392C354.585,277.04 343.354,268.789 335.103,258.638C326.852,248.488 321.416,237.846 318.797,226.714C314.999,210.211 313.1,185.85 313.1,153.631L313.1,0Z" style="fill:white;fill-opacity:0.5;"/>
                            <path d="M863.774,305.252L889.253,305.252L760.123,-17.243L675.172,-17.243L549.561,305.252L648.552,305.252L672.324,239.832C672.324,239.832 763.522,239.832 763.522,239.832C763.522,239.832 788.669,305.252 788.669,305.252L863.774,305.252ZM863.774,288.009L800.514,288.009L775.368,222.588L660.243,222.588L636.471,288.009L574.783,288.009L686.961,0L748.453,0L863.774,288.009ZM756.704,174.063L717.019,67.189L678.12,174.063L756.704,174.063ZM731.907,156.819L702.747,156.819C702.747,156.819 717.181,117.161 717.181,117.161L731.907,156.819Z" style="fill:white;fill-opacity:0.5;"/>
                        </g>
                    </g>
                </g>
            </g>
        </g>
    </g>
</svg>
